<svg width="20" height="20" viewBox="0 0 20 20" fill="none" xmlns="http://www.w3.org/2000/svg">
<g id="Provide Liquidity to Pools on Uniswap 6">
<rect width="20" height="20" rx="6" fill="#F6EAD1"/>
<path id="Vector" fill-rule="evenodd" clip-rule="evenodd" d="M13.5659 9.45175L13.5587 7.90364H13.5643L12.2494 7.12961L9.99625 8.45817L7.75663 7.12961L6.44253 7.90364V9.45175L8.69575 10.7738V13.4245L10.0043 14.1913L11.3128 13.4245V10.7738L13.5659 9.45175ZM9.997 3.16407L6.44173 5.26022L7.75022 6.03426L9.997 4.70572L12.2502 6.03426L13.5587 5.26022L9.997 3.16407ZM5.50321 12.6438L5.496 9.99958L4.1883 9.22633V13.4251L7.75 15.514V13.9659L5.50321 12.6438ZM5.496 8.89625V7.35537L6.8109 6.58133L5.496 5.80729L4.1875 6.58133V8.12219L5.496 8.89625ZM9.99683 5.80729L8.68833 6.58133L9.99683 7.35537L11.3117 6.58133L9.99683 5.80729ZM7.74982 11.3217L6.44132 10.5477V12.0957L7.74982 12.8626V11.3217ZM9.99658 15.2945L8.68808 14.5204V16.0613L9.99658 16.8353L11.3115 16.0613V14.5204L9.99658 15.2945ZM14.4966 5.80729L13.1881 6.58133L14.4966 7.35537V8.89625L15.8115 8.12219V6.58133L14.4966 5.80729ZM15.8123 9.22558L14.5038 9.99958L14.4966 12.6438L12.2506 13.9652V15.5132L15.8123 13.4242V9.22558ZM13.5583 12.0957L12.2498 12.8626V11.3217L13.5583 10.5477V12.0957Z" fill="#EAB200"/>
</g>
</svg>
