<svg width="24" height="24" viewBox="0 0 24 24" fill="none" xmlns="http://www.w3.org/2000/svg">
<g id="7" clip-path="url(#clip0_780_7453)">
<mask id="mask0_780_7453" style="mask-type:alpha" maskUnits="userSpaceOnUse" x="0" y="0" width="24" height="24">
<g id="mask__beam">
<path id="Vector" d="M24 12C24 5.37258 18.6274 0 12 0C5.37258 0 0 5.37258 0 12C0 18.6274 5.37258 24 12 24C18.6274 24 24 18.6274 24 12Z" fill="white"/>
</g>
</mask>
<g mask="url(#mask0_780_7453)">
<g id="Group">
<path id="Vector_2" d="M24 0H0V24H24V0Z" fill="#FC72FF"/>
<path id="Vector_3" d="M22.4178 30.7299C27.9423 25.0091 27.7832 15.8929 22.0624 10.3683C16.3415 4.84377 7.22533 5.00289 1.70078 10.7237C-3.82377 16.4446 -3.66465 25.5608 2.05619 31.0853C7.77703 36.6099 16.8932 36.4507 22.4178 30.7299Z" fill="#FFEFFF"/>
<g id="Group_2">
<path id="Vector_4" d="M6.14771 16.8945C6.19396 17.556 6.58865 18.1658 7.24495 18.5899C7.90125 19.014 8.76541 19.2176 9.64731 19.1559C10.5292 19.0943 11.3566 18.7724 11.9475 18.2611C12.5384 17.7497 12.8444 17.0909 12.7981 16.4295" fill="#222222"/>
<path id="Vector_5" d="M4.87122 12.9742C4.84553 12.6069 4.6014 12.3248 4.32593 12.344C4.05046 12.3633 3.84797 12.6767 3.87365 13.0439C3.89934 13.4112 4.14347 13.6934 4.41894 13.6741C4.69441 13.6549 4.8969 13.3415 4.87122 12.9742Z" fill="#222222"/>
<path id="Vector_6" d="M14.1818 12.3228C14.1561 11.9555 13.9119 11.6734 13.6365 11.6927C13.361 11.7119 13.1585 12.0253 13.1842 12.3926C13.2099 12.7599 13.454 13.042 13.7295 13.0227C14.005 13.0035 14.2074 12.6901 14.1818 12.3228Z" fill="#222222"/>
</g>
</g>
</g>
</g>
<defs>
<clipPath id="clip0_780_7453">
<rect width="24" height="24" fill="white"/>
</clipPath>
</defs>
</svg>
