<svg width="24" height="24" viewBox="0 0 24 24" fill="none" xmlns="http://www.w3.org/2000/svg">
<g clip-path="url(#clip0_2623_17157)">
<mask id="mask0_2623_17157" style="mask-type:luminance" maskUnits="userSpaceOnUse" x="0" y="0" width="24" height="24">
<path d="M24 12C24 5.37258 18.6274 0 12 0C5.37258 0 0 5.37258 0 12C0 18.6274 5.37258 24 12 24C18.6274 24 24 18.6274 24 12Z" fill="white"/>
</mask>
<g mask="url(#mask0_2623_17157)">
<path d="M24 0H0V24H24V0Z" fill="#8257F0"/>
<path d="M8.66666 25.059C14.4062 28.3727 21.7453 26.4062 25.059 20.6667C28.3727 14.9272 26.4062 7.58812 20.6667 4.27441C14.9271 0.960705 7.58806 2.92721 4.27435 8.66672C0.960641 14.4062 2.92714 21.7453 8.66666 25.059Z" fill="#19F99C"/>
<path d="M13.9999 9.16602C12.6666 8.49935 11.3333 8.49935 9.99994 9.16602" stroke="#161616" stroke-width="0.6" stroke-linecap="round"/>
<path d="M10.3334 5.99967C10.3334 5.63148 10.1096 5.33301 9.83344 5.33301C9.55729 5.33301 9.33344 5.63148 9.33344 5.99967C9.33344 6.36786 9.55729 6.66634 9.83344 6.66634C10.1096 6.66634 10.3334 6.36786 10.3334 5.99967Z" fill="#161616"/>
<path d="M14.3334 5.99967C14.3334 5.63148 14.1096 5.33301 13.8334 5.33301C13.5573 5.33301 13.3334 5.63148 13.3334 5.99967C13.3334 6.36786 13.5573 6.66634 13.8334 6.66634C14.1096 6.66634 14.3334 6.36786 14.3334 5.99967Z" fill="#161616"/>
</g>
</g>
<defs>
<clipPath id="clip0_2623_17157">
<rect width="24" height="24" fill="white"/>
</clipPath>
</defs>
</svg>
