<?xml version="1.0" encoding="UTF-8"?>
<svg width="30px" height="30px" viewBox="0 0 30 30" version="1.1" xmlns="http://www.w3.org/2000/svg" xmlns:xlink="http://www.w3.org/1999/xlink">
    <title>Vector</title>
    <g id="页面-1" stroke="none" stroke-width="1" fill="none" fill-rule="evenodd">
        <g id="Extra-Large" transform="translate(-768.000000, -6470.000000)" fill="#FFFFFF">
            <g id="编组" transform="translate(768.000000, 6470.000000)">
                <path d="M0,15.0299782 C0,22.5299675 5.49,28.7549491 12.65997,29.8799595 C12.65997,29.8799595 12.65997,26.3799605 12.65997,19.3799624 L8.85,19.3799624 L8.85,15.0299782 L12.65997,15.0299782 L12.65997,11.714976 C12.65997,7.94998154 14.89497,5.87998759 18.32997,5.87998759 C19.96497,5.87998759 21.67497,6.16498264 21.67497,6.16498264 C21.67497,6.16498264 21.67497,7.39998113 21.67497,9.8699781 L19.78497,9.8699781 C17.92497,9.8699781 17.33997,11.0249879 17.33997,12.2099972 C17.33997,12.2099972 17.33997,13.1499909 17.33997,15.0299782 L21.50997,15.0299782 L20.83497,19.3799624 L17.33997,19.3799624 L17.33997,29.8799595 C20.87463,29.3217122 24.09327,27.5182475 26.41485,24.7950477 C28.73643,22.0718779 30.00798,18.608432 30,15.0299782 C30,6.73500263 23.24997,6.39488462e-14 14.99997,6.39488462e-14 C6.75,6.39488462e-14 0,6.73500263 0,15.0299782 C0,15.0299782 0,15.0299782 0,15.0299782 Z" id="Vector"></path>
            </g>
        </g>
    </g>
</svg>