<?xml version="1.0" encoding="UTF-8"?>
<svg width="30px" height="30px" viewBox="0 0 30 30" version="1.1" xmlns="http://www.w3.org/2000/svg" xmlns:xlink="http://www.w3.org/1999/xlink">
    <title>差集</title>
    <g id="页面-1" stroke="none" stroke-width="1" fill="none" fill-rule="evenodd">
        <g id="Extra-Large" transform="translate(-1008.000000, -6470.000000)" fill="#FFFFFF">
            <g id="编组" transform="translate(768.000000, 6470.000000)">
                <path d="M266.66667,0 C267.55071,0 268.39857,0.35118 269.02368,0.97632 C269.64882,1.60143 270,2.44929 270,3.33333 L270,26.66667 C270,27.55071 269.64882,28.39857 269.02368,29.02368 C268.39857,29.64882 267.55071,30 266.66667,30 L243.33333,30 C242.44929,30 241.60143,29.64882 240.97632,29.02368 C240.35118,28.39857 240,27.55071 240,26.66667 L240,3.33333 C240,2.44929 240.35118,1.60143 240.97632,0.97632 C241.60143,0.35118 242.44929,0 243.33333,0 L266.66667,0 Z M260.400061,11.5673828 C258.983392,11.5673828 257.333395,12.4340498 256.533388,13.734043 L256.533388,11.8840531 L251.883392,11.8840531 L251.883392,25.8340541 L256.533388,25.8340541 L256.533388,17.6173883 C256.533388,16.3340439 257.566723,15.2840542 258.850058,15.2840542 C259.468895,15.2840542 260.062386,15.5298779 260.499971,15.9674698 C260.937556,16.4050475 261.183398,16.9985423 261.183398,17.6173883 L261.183398,25.8340541 L265.833435,25.8340541 L265.833435,17.0007108 C265.833435,15.5597088 265.260953,14.1777125 264.242,13.1587665 C263.223061,12.1398204 261.841072,11.5673828 260.400061,11.5673828 Z M248.783417,11.8835449 L244.166718,11.8835449 L244.166718,25.8335484 L248.783417,25.8335484 L248.783417,11.8835449 Z M246.466568,3.64990234 C245.719544,3.64990234 245.003113,3.94665753 244.474887,4.47488636 C243.94666,5.00310958 243.649902,5.7195438 243.649902,6.46656857 C243.649902,8.01656969 244.916571,9.26656896 246.466568,9.26656896 C247.209173,9.26656896 247.921368,8.97157192 248.446466,8.44646617 C248.97157,7.92136605 249.266586,7.2091727 249.266586,6.46656857 C249.266586,4.91656745 248.016571,3.64990234 246.466568,3.64990234 Z" id="差集"></path>
            </g>
        </g>
    </g>
</svg>