<?xml version="1.0" encoding="UTF-8"?>
<svg width="30px" height="30px" viewBox="0 0 30 30" version="1.1" xmlns="http://www.w3.org/2000/svg" xmlns:xlink="http://www.w3.org/1999/xlink">
    <title>编组 4</title>
    <g id="页面-1" stroke="none" stroke-width="1" fill="none" fill-rule="evenodd">
        <g id="Extra-Large" transform="translate(-1122.000000, -6470.000000)" fill="#FFFFFF">
            <g id="编组" transform="translate(768.000000, 6470.000000)">
                <g id="编组-4" transform="translate(354.000000, 0.000000)">
                    <path d="M21.3000152,-0.00219726552 C26.0999887,-0.00219726552 30.0000215,3.89780874 30.0000215,8.69780922 L30.0000215,21.2977917 C30.0000215,23.6051975 29.0834008,25.8180739 27.4518196,27.4496439 C25.8202685,29.0812138 23.6073769,29.9976182 21.3000152,29.9976182 L8.70000622,29.9976182 C3.90000279,29.9976182 0,26.0977922 0,21.2977917 L0,8.69780922 C0,6.39043341 0.916590656,4.17752702 2.54817182,2.54598706 C4.17972299,0.914417096 6.39261457,-0.00219726552 8.70000622,-0.00219726552 L21.3000152,-0.00219726552 Z M21.6000968,2.99926744 L8.400086,2.99926744 C6.96791144,2.99926744 5.59441681,3.56819175 4.58171383,4.58087943 C3.56901084,5.5935911 3.00009141,6.96709752 3.00009141,8.39926038 L3.00009141,21.5992645 C3.00009141,24.5842631 5.41508899,26.9994494 8.400086,26.9994494 L21.6000968,26.9994494 C23.0322714,26.9994494 24.405766,26.4303331 25.418469,25.4176454 C26.4311719,24.4049577 27.0000674,23.0314273 27.0000674,21.5992645 L27.0000674,8.39926038 C27.0000674,5.41426174 24.5850938,2.99926744 21.6000968,2.99926744 Z" id="差集"></path>
                    <path d="M15.0000912,7.50146449 C16.9892113,7.50146449 18.8968633,8.29164409 20.303396,9.6981662 C21.7099138,11.1046883 22.5000676,13.0123365 22.5000676,15.0014645 C22.5000676,16.9905799 21.7099138,18.8982431 20.303396,20.3047652 C18.8968633,21.7112873 16.9892113,22.5014645 15.0000912,22.5014645 C13.0109625,22.5014645 11.1033105,21.7112873 9.69679274,20.3047652 C8.29025995,18.8982431 7.5000912,16.9905799 7.5000912,15.0014645 C7.5000912,13.0123365 8.29025995,11.1046883 9.69679274,9.6981662 C11.1033105,8.29164409 13.0109625,7.50146449 15.0000912,7.50146449 Z M14.9999079,10.4996333 C13.8064358,10.4996333 12.6618428,10.9737353 11.8179219,11.8176472 C10.9740099,12.6615682 10.4999079,13.8061611 10.4999079,14.9996333 C10.4999079,16.193105 10.9740099,17.337698 11.8179219,18.1816189 C12.6618428,19.0255309 13.8064358,19.4996333 14.9999079,19.4996333 C16.1933797,19.4996333 17.3379726,19.0255309 18.1818936,18.1816189 C19.0258055,17.337698 19.4999079,16.193105 19.4999079,14.9996333 C19.4999079,13.8061611 19.0258055,12.6615682 18.1818936,11.8176472 C17.3379726,10.9737353 16.1933797,10.4996333 14.9999079,10.4996333 Z M22.8750903,5.25146459 C23.372371,5.25146459 23.8492855,5.44900923 24.2009171,5.80063763 C24.5525487,6.15226978 24.7500675,6.6291843 24.7500675,7.12646605 C24.7500675,7.62374406 24.5525487,8.10065857 24.2009171,8.45229072 C23.8492855,8.80391913 23.372371,9.00146376 22.8750903,9.00146376 C22.3778096,9.00146376 21.900895,8.80391913 21.5492634,8.45229072 C21.1976318,8.10065857 21.0000906,7.62374406 21.0000906,7.12646605 C21.0000906,6.6291843 21.1976318,6.15226978 21.5492634,5.80063763 C21.900895,5.44900923 22.3778096,5.25146459 22.8750903,5.25146459 Z" id="差集"></path>
                </g>
            </g>
        </g>
    </g>
</svg>