<svg width="16" height="16" viewBox="0 0 16 16" fill="none" xmlns="http://www.w3.org/2000/svg">
<g id="MetaMask icon 1">
<g clip-path="url(#clip0_69_27482)">
<path id="Vector" d="M16 0H0V16H16V0Z" fill="#F7F9FB"/>
<path id="Vector_2" d="M13.0751 2.6666L8.82227 5.82528L9.60871 3.96171L13.0751 2.6666Z" fill="#E2761B" stroke="#E2761B" stroke-width="0.106857" stroke-linecap="round" stroke-linejoin="round"/>
<path id="Vector_3" d="M3.25739 2.6666L7.47611 5.8552L6.72811 3.96171L3.25739 2.6666ZM11.5452 9.98844L10.4125 11.7238L12.836 12.3906L13.5328 10.0269L11.5452 9.98844ZM2.80859 10.0269L3.50103 12.3906L5.92455 11.7238L4.79187 9.98844L2.80859 10.0269Z" fill="#E4761B" stroke="#E4761B" stroke-width="0.106857" stroke-linecap="round" stroke-linejoin="round"/>
<path id="Vector_4" d="M5.78787 7.0564L5.11255 8.07796L7.51895 8.1848L7.43347 5.59888L5.78787 7.0564ZM10.5451 7.0564L8.87819 5.56896L8.82259 8.1848L11.2247 8.07796L10.5451 7.0564ZM5.92467 11.7239L7.36935 11.0186L6.12127 10.0441L5.92467 11.7239ZM8.96367 11.0186L10.4126 11.7239L10.2117 10.0441L8.96367 11.0186Z" fill="#E4761B" stroke="#E4761B" stroke-width="0.106857" stroke-linecap="round" stroke-linejoin="round"/>
<path id="Vector_5" d="M10.4126 11.7238L8.96356 11.0186L9.07896 11.9632L9.06616 12.3607L10.4126 11.7238ZM5.92456 11.7238L7.27096 12.3607L7.2624 11.9632L7.36924 11.0186L5.92456 11.7238Z" fill="#D7C1B3" stroke="#D7C1B3" stroke-width="0.106857" stroke-linecap="round" stroke-linejoin="round"/>
<path id="Vector_6" d="M7.29276 9.41988L6.0874 9.06512L6.938 8.67616L7.29276 9.41988ZM9.04092 9.41988L9.39568 8.67616L10.2506 9.06512L9.04092 9.41988Z" fill="#233447" stroke="#233447" stroke-width="0.106857" stroke-linecap="round" stroke-linejoin="round"/>
<path id="Vector_7" d="M5.92418 11.7237L6.12938 9.98832L4.7915 10.0268L5.92418 11.7237ZM10.207 9.98832L10.4122 11.7237L11.5449 10.0268L10.207 9.98832ZM11.2243 8.07772L8.82214 8.1846L9.04442 9.41984L9.39918 8.67612L10.254 9.06508L11.2243 8.07772ZM6.08662 9.06508L6.94146 8.67612L7.29198 9.41984L7.5185 8.1846L5.1121 8.07772L6.08662 9.06508Z" fill="#CD6116" stroke="#CD6116" stroke-width="0.106857" stroke-linecap="round" stroke-linejoin="round"/>
<path id="Vector_8" d="M5.11255 8.07772L6.12127 10.0439L6.08707 9.06508L5.11255 8.07772ZM10.2545 9.06508L10.2117 10.0439L11.2247 8.07772L10.2545 9.06508ZM7.51895 8.1846L7.29243 9.41984L7.57451 10.8774L7.63863 8.95824L7.51895 8.1846ZM8.82259 8.1846L8.70719 8.95396L8.75851 10.8774L9.04487 9.41984L8.82259 8.1846Z" fill="#E4751F" stroke="#E4751F" stroke-width="0.106857" stroke-linecap="round" stroke-linejoin="round"/>
<path id="Vector_9" d="M9.0452 9.4198L8.75884 10.8773L8.964 11.0184L10.2121 10.0438L10.2548 9.06504L9.0452 9.4198ZM6.0874 9.06504L6.1216 10.0438L7.36968 11.0184L7.57484 10.8773L7.29276 9.4198L6.0874 9.06504Z" fill="#F6851B" stroke="#F6851B" stroke-width="0.106857" stroke-linecap="round" stroke-linejoin="round"/>
<path id="Vector_10" d="M9.06616 12.3609L9.07896 11.9634L8.97212 11.8694H7.36072L7.2624 11.9634L7.27096 12.3609L5.92456 11.724L6.39472 12.1087L7.34788 12.7712H8.98492L9.94236 12.1087L10.4126 11.724L9.06616 12.3609Z" fill="#C0AD9E" stroke="#C0AD9E" stroke-width="0.106857" stroke-linecap="round" stroke-linejoin="round"/>
<path id="Vector_11" d="M8.96361 11.0186L8.75845 10.8775H7.57449L7.36933 11.0186L7.26245 11.9632L7.36077 11.8692H8.97217L9.07901 11.9632L8.96361 11.0186Z" fill="#161616" stroke="#161616" stroke-width="0.106857" stroke-linecap="round" stroke-linejoin="round"/>
<path id="Vector_12" d="M13.2548 6.03044L13.6182 4.28656L13.0753 2.6666L8.96348 5.71844L10.545 7.05628L12.7804 7.71024L13.2762 7.1332L13.0625 6.97936L13.4044 6.66732L13.1394 6.46216L13.4814 6.20144L13.2548 6.03044ZM2.71875 4.28656L3.08206 6.03044L2.85125 6.20144L3.19319 6.46216L2.93246 6.66732L3.2744 6.97936L3.06069 7.1332L3.55223 7.71024L5.78768 7.05628L7.36916 5.71844L3.25731 2.6666L2.71875 4.28656Z" fill="#763D16" stroke="#763D16" stroke-width="0.106857" stroke-linecap="round" stroke-linejoin="round"/>
<path id="Vector_13" d="M12.7805 7.71044L10.545 7.05648L11.2246 8.07804L10.2116 10.0442L11.5452 10.0271H13.5328L12.7805 7.71044ZM5.78775 7.05648L3.55232 7.71044L2.80859 10.0271H4.79187L6.12115 10.0442L5.11243 8.07804L5.78775 7.05648ZM8.82251 8.18488L8.96355 5.71864L9.61323 3.96191H6.72811L7.36923 5.71864L7.51883 8.18488L7.57015 8.9628L7.57439 10.8777H8.75839L8.76691 8.9628L8.82251 8.18488Z" fill="#F6851B" stroke="#F6851B" stroke-width="0.106857" stroke-linecap="round" stroke-linejoin="round"/>
</g>
</g>
<defs>
<clipPath id="clip0_69_27482">
<rect width="16" height="16" rx="8" fill="white"/>
</clipPath>
</defs>
</svg>
