<?xml version="1.0" encoding="UTF-8"?>
<svg width="30px" height="30px" viewBox="0 0 30 30" version="1.1" xmlns="http://www.w3.org/2000/svg" xmlns:xlink="http://www.w3.org/1999/xlink">
    <title>Vector</title>
    <g id="页面-1" stroke="none" stroke-width="1" fill="none" fill-rule="evenodd">
        <g id="Extra-Large" transform="translate(-948.000000, -6470.000000)" fill="#FFFFFF">
            <g id="编组" transform="translate(768.000000, 6470.000000)">
                <path d="M195,30 C198.97824,30 202.79355,28.41966 205.60659,25.60659 C208.41966,22.79355 210,18.97824 210,15 C210,13.03017 209.61201,11.07963 208.8582,9.25974 C208.10439,7.43985 206.99949,5.78628 205.60659,4.39341 C204.21372,3.00051 202.56015,1.89564 200.74026,1.1418 C198.92037,0.38799 196.96983,0 195,0 C193.03017,0 191.07963,0.38799 189.25974,1.1418 C187.43985,1.89564 185.78628,3.00051 184.39341,4.39341 C181.58034,7.20645 180,11.02176 180,15 C180,21.375 184.005,26.85 189.66,29.01 C189.525,27.84 189.39,25.905 189.66,24.57 C189.66,24.57 190.235,22.1 191.385,17.16 C191.385,17.16 190.95,16.29 190.95,14.91 C190.95,12.84 192.24,11.295 193.71,11.295 C195,11.295 195.6,12.24 195.6,13.455 C195.6,14.745 194.745,16.59 194.31,18.36 C194.055,19.83 195.09,21.12 196.59,21.12 C199.26,21.12 201.33,18.27 201.33,14.25 C201.33,10.65 198.75,8.19 195.045,8.19 C190.815,8.19 188.325,11.34 188.325,14.655 C188.325,15.945 188.745,17.25 189.435,18.105 C189.57,18.195 189.57,18.315 189.525,18.54 C189.525,18.54 189.38,19.085 189.09,20.175 C189.09,20.43 188.925,20.52 188.67,20.34 C186.75,19.5 185.64,16.77 185.64,14.565 C185.64,9.825 189,5.52 195.48,5.52 C200.64,5.52 204.66,9.225 204.66,14.145 C204.66,19.305 201.465,23.445 196.89,23.445 C195.435,23.445 194.01,22.665 193.5,21.75 C193.5,21.75 193.165,22.935 192.495,25.305 C192.15,26.595 191.205,28.32 190.56,29.355 C190.56,29.355 190.56,29.34 190.56,29.31 C192,29.745 193.455,30 195,30 C195,30 195,30 195,30 Z" id="Vector"></path>
            </g>
        </g>
    </g>
</svg>