<?xml version="1.0" encoding="UTF-8"?>
<svg width="24px" height="27px" viewBox="0 0 24 27" version="1.1" xmlns="http://www.w3.org/2000/svg" xmlns:xlink="http://www.w3.org/1999/xlink">
    <title>Vector</title>
    <g id="页面-1" stroke="none" stroke-width="1" fill="none" fill-rule="evenodd">
        <g id="Extra-Large" transform="translate(-1068.000000, -6472.000000)" fill="#FFFFFF">
            <g id="编组" transform="translate(768.000000, 6470.000000)">
                <path d="M317.41836,2 L312.688776,2 L312.688776,20.600003 C312.652296,21.606536 312.218688,22.559933 311.479224,23.259395 C310.739784,23.958884 309.752208,24.349844 308.72448,24.350006 C306.551016,24.350006 304.744896,22.609991 304.744896,20.449991 C304.744896,17.870006 307.285704,15.934997 309.903072,16.730012 C309.903072,16.730012 309.903072,15.150008 309.903072,11.99 C304.622448,11.299988 300,15.319991 300,20.449991 C300,25.444991 304.22448,29 308.709192,29 C313.515312,29 317.41836,25.174991 317.41836,20.449991 C317.41836,20.449991 317.41836,17.304995 317.41836,11.015003 C319.336224,12.364787 321.638808,13.088981 324,13.085012 C324,13.085012 324,11.540009 324,8.450003 C324,8.450003 321.122448,8.585003 319.040808,6.230009 C317.994528,5.059424 317.417928,3.556145 317.41836,2 C317.41836,2 317.41836,2 317.41836,2 Z" id="Vector"></path>
            </g>
        </g>
    </g>
</svg>