<?xml version="1.0" encoding="UTF-8"?>
<svg width="30px" height="25px" viewBox="0 0 30 25" version="1.1" xmlns="http://www.w3.org/2000/svg" xmlns:xlink="http://www.w3.org/1999/xlink">
    <title>Vector</title>
    <g id="页面-1" stroke="none" stroke-width="1" fill="none" fill-rule="evenodd">
        <g id="Extra-Large" transform="translate(-828.000000, -6473.000000)" fill="#FFFFFF">
            <g id="编组" transform="translate(768.000000, 6470.000000)">
                <path d="M86.47227,6.85754588 C87.73422,6.09751902 88.70937,4.89292422 89.16825,3.44454355 C87.978,4.16156658 86.65869,4.66347295 85.26768,4.95028704 C84.13479,3.71702303 82.54302,3 80.73615,3 C77.36616,3 74.61282,5.75334211 74.61282,9.15200983 C74.61282,9.63958159 74.67018,10.1128187 74.77056,10.5573623 C69.6654,10.2992418 65.1195,7.84704839 62.0937,4.13289736 C61.56309,5.03631908 61.26195,6.09751902 61.26195,7.21605739 C61.26195,9.3527675 62.33748,11.2456917 64.00095,12.3212263 C62.98278,12.3212263 62.03634,12.0344122 61.20459,11.6042032 C61.20459,11.6042032 61.20459,11.618546 61.20459,11.6472314 C61.20459,14.6300248 63.32697,17.1252464 66.13767,17.6845156 C65.23527,17.9314707 64.2879,17.9658202 63.36999,17.7849067 C63.75948,19.007371 64.52229,20.077079 65.55117,20.8435906 C66.58005,21.6101265 67.82331,22.0349234 69.10611,22.0583269 C66.93159,23.7797965 64.23612,24.7103028 61.46271,24.6969433 C60.97515,24.6969433 60.48756,24.6682741 60,24.6109113 C62.72466,26.3604163 65.96559,27.378588 69.43596,27.378588 C80.73615,27.378588 86.94552,18 86.94552,9.86903286 C86.94552,9.59655338 86.94552,9.33843289 86.93118,9.06597779 C88.13577,8.20553552 89.16825,7.11569075 90,5.86806775 C88.89579,6.36997412 87.70554,6.69981641 86.47227,6.85754588 C86.47227,6.85754588 86.47227,6.85754588 86.47227,6.85754588 Z" id="Vector"></path>
            </g>
        </g>
    </g>
</svg>