<?xml version="1.0" encoding="UTF-8"?>
<svg width="30px" height="21px" viewBox="0 0 30 21" version="1.1" xmlns="http://www.w3.org/2000/svg" xmlns:xlink="http://www.w3.org/1999/xlink">
    <title>差集</title>
    <g id="页面-1" stroke="none" stroke-width="1" fill="none" fill-rule="evenodd">
        <g id="Extra-Large" transform="translate(-888.000000, -6475.000000)" fill="#FFFFFF">
            <g id="编组" transform="translate(768.000000, 6470.000000)">
                <path d="M135,4.99780273 C141.284991,4.99780273 145.199989,5.23780963 146.744989,5.65780595 C148.094988,6.03279966 148.964988,6.90280103 149.339987,8.2527952 C149.534987,8.95780102 149.669987,9.90279273 149.759987,11.1028062 C149.864987,12.3027987 149.909987,13.3377956 149.909987,14.2378057 L149.999987,15.4978027 C149.999987,18.7827959 149.759987,21.1977957 149.339987,22.7427942 C148.964988,24.0928093 148.094988,24.9628107 146.744989,25.3378044 C146.039989,25.5328087 144.749989,25.6677955 142.76999,25.7578007 C140.819991,25.8627998 139.034992,25.9078024 137.384993,25.9078024 C137.384993,25.9078024 136.589995,25.9377412 135,25.9976186 C128.714996,25.9976186 124.799998,25.7578007 123.254999,25.3378044 C121.904999,24.9628107 121.035,24.0928093 120.66,22.7427942 C120.465,22.0378093 120.33,21.0927966 120.24,19.8928041 C120.135,18.6928117 120.09,17.6577937 120.09,16.7578046 C120.09,16.7578046 120.06,16.337804 120,15.4978027 C120,12.2127935 120.24,9.79779365 120.66,8.2527952 C121.035,6.90280103 121.904999,6.03279966 123.254999,5.65780595 C123.959998,5.46280166 125.249998,5.32779384 127.229997,5.23780963 C129.179996,5.13281055 130.964995,5.08780795 132.614995,5.08780795 C132.614995,5.08780795 133.409996,5.05780621 135,4.99780273 Z M131.999954,10.9996335 L131.999954,19.9996335 L139.784968,15.4996335 L131.999954,10.9996335 Z" id="差集"></path>
            </g>
        </g>
    </g>
</svg>