<svg width="48" height="48" viewBox="0 0 48 48" fill="none" xmlns="http://www.w3.org/2000/svg">
<g id="Frame">
<path id="Vector" d="M36.54 19.066C37.4273 19.0641 38.2948 19.3279 39.0308 19.8234C39.7669 20.3188 40.3378 21.0233 40.67 21.846L44 30.166V40.844C43.9947 42.0175 43.5236 43.1409 42.6902 43.9671C41.8569 44.7933 40.7295 45.2548 39.556 45.25H8.446C7.86477 45.2526 7.28871 45.1408 6.75071 44.9208C6.21272 44.7008 5.72332 44.3769 5.31047 43.9678C4.89762 43.5587 4.5694 43.0722 4.34455 42.5362C4.1197 42.0003 4.00262 41.4252 4 40.844V30.34L7.34 21.868C7.6694 21.0396 8.24035 20.3294 8.97865 19.8297C9.71696 19.33 10.5885 19.0639 11.48 19.066H36.54ZM16.3 31.184H6.22V40.844C6.22 41.962 7.066 42.902 8.184 43.032L8.444 43.048H39.554C40.0962 43.05 40.6203 42.853 41.0269 42.4943C41.4335 42.1356 41.6944 41.6402 41.76 41.102L41.778 40.844V31.184H31.698C31.144 34.976 27.866 37.792 24 37.792C20.134 37.792 16.854 34.976 16.3 31.184ZM11.48 21.27C10.664 21.27 9.912 21.714 9.524 22.428L9.41 22.672L6.92 28.98H17.092V29.006C17.2543 28.9706 17.4224 28.9716 17.5842 29.009C17.7461 29.0463 17.8976 29.1191 18.028 29.222C18.288 29.432 18.442 29.746 18.444 30.08C18.444 33.12 20.932 35.588 24 35.588C27.068 35.588 29.556 33.122 29.556 30.08C29.556 29.492 30.022 29.006 30.616 28.98H41.134L38.604 22.66C38.4557 22.291 38.2109 21.9686 37.8953 21.7265C37.5797 21.4845 37.2049 21.3316 36.81 21.284L36.538 21.268H11.48V21.27ZM23.988 2.75C24.524 2.75 24.984 3.13 25.08 3.652L25.1 3.852V12.534C25.1 12.8108 24.9959 13.0776 24.8085 13.2813C24.621 13.4851 24.3639 13.6109 24.088 13.634C23.8126 13.6597 23.5376 13.5817 23.3167 13.4152C23.0959 13.2487 22.9451 13.0058 22.894 12.734L22.876 12.534V3.85C22.876 3.242 23.376 2.75 23.988 2.75ZM10.494 5.65L16.964 14.336C17.1261 14.5566 17.1996 14.83 17.17 15.1021C17.1403 15.3743 17.0098 15.6254 16.804 15.806C16.5969 15.9879 16.33 16.0871 16.0543 16.0845C15.7787 16.0819 15.5137 15.9778 15.31 15.792L15.176 15.644L8.708 6.96C8.54345 6.73965 8.46793 6.46542 8.49647 6.1919C8.52501 5.91838 8.65551 5.66564 8.862 5.484C9.06972 5.30066 9.33803 5.20083 9.61507 5.20378C9.89212 5.20674 10.1582 5.31227 10.362 5.5L10.494 5.652V5.65ZM39.45 6.788L39.346 6.958L32.896 15.642C32.7303 15.8637 32.4883 16.0161 32.2168 16.0697C31.9452 16.1233 31.6635 16.0742 31.426 15.932C31.1892 15.7909 31.0143 15.5658 30.9361 15.3015C30.8579 15.0373 30.8822 14.7532 31.004 14.506L31.104 14.336L37.556 5.654C37.7325 5.41838 37.9946 5.26159 38.2857 5.21744C38.5768 5.17329 38.8735 5.24532 39.112 5.418C39.3203 5.57024 39.4684 5.79099 39.5302 6.04152C39.592 6.29204 39.5636 6.55633 39.45 6.788Z" fill="#222222"/>
</g>
</svg>
