<svg width="12" height="12" viewBox="0 0 12 12" fill="none" xmlns="http://www.w3.org/2000/svg">
<g id="link 1">
<path id="Vector" fill-rule="evenodd" clip-rule="evenodd" d="M8.50465 3H3.46681C3.34443 3.00436 3.22853 3.05603 3.1435 3.14415C3.05847 3.23226 3.01095 3.34993 3.01095 3.47238C3.01095 3.59482 3.05847 3.7125 3.1435 3.80061C3.22853 3.88872 3.34443 3.94039 3.46681 3.94475H7.36485L3.13175 8.17665C3.04606 8.26588 2.99877 8.38514 3.00002 8.50883C3.00128 8.63253 3.05097 8.75081 3.13844 8.83828C3.22591 8.92575 3.34419 8.97545 3.46789 8.9767C3.59159 8.97795 3.71085 8.93066 3.80007 8.84497L8.03197 4.61247V8.51051C8.02972 8.57396 8.04026 8.63721 8.06298 8.6965C8.08571 8.75578 8.12014 8.80987 8.16423 8.85556C8.20831 8.90124 8.26115 8.93758 8.31959 8.96239C8.37802 8.98721 8.44086 9 8.50435 9C8.56783 9 8.63067 8.98721 8.68911 8.96239C8.74754 8.93758 8.80038 8.90124 8.84447 8.85556C8.88856 8.80987 8.92299 8.75578 8.94571 8.6965C8.96843 8.63721 8.97898 8.57396 8.97672 8.51051V3.47267C8.97696 3.41054 8.96489 3.34897 8.94122 3.29151C8.91755 3.23406 8.88274 3.18186 8.83881 3.13792C8.79487 3.09398 8.74267 3.05917 8.68521 3.0355C8.62776 3.01183 8.56619 2.99977 8.50405 3H8.50465Z" fill="#FC72FF"/>
</g>
</svg>
