<svg width="95" height="24" viewBox="0 0 95 24" fill="none" xmlns="http://www.w3.org/2000/svg">
<path fill-rule="evenodd" clip-rule="evenodd" d="M10.2757 0.000976562H13.7023L14.3286 2.50607C15.3205 2.74126 16.2542 3.12693 17.1042 3.63764L19.2981 2.21519L21.7479 4.61096L20.4093 6.8994C21.3375 8.39887 21.8733 10.1668 21.8733 12.0599C21.8733 13.9305 21.3501 15.679 20.4422 17.167L21.7674 19.2706L19.3398 21.6889L17.2201 20.4115C16.3515 20.9498 15.3928 21.3564 14.3718 21.6034L13.8425 23.9888L10.416 23.9991L9.81402 21.6215C8.77115 21.3781 7.79217 20.9684 6.90654 20.422L4.91564 21.7346L2.44754 19.3577L3.68762 17.1999C3.14093 16.3118 2.73166 15.3301 2.48945 14.2844L0 13.7072L0.0223177 10.2807L2.52893 9.67141C2.78118 8.66214 3.18962 7.71474 3.72709 6.85638L2.39603 4.70745L4.84193 2.30767L7.00848 3.6358C7.83681 3.13853 8.74453 2.75998 9.70812 2.52366L10.2757 0.000976562ZM18.5505 10.676H12.1208L9.94629 14.3662H18.3199C17.403 16.9026 14.9736 18.7153 12.1209 18.7153C8.48162 18.7153 5.53137 15.7651 5.53137 12.1258C5.53137 8.48646 8.48162 5.53621 12.1209 5.53621C15.2622 5.53621 17.89 7.73416 18.5505 10.676Z" fill="url(#paint0_linear_1177_63798)"/>
<path fill-rule="evenodd" clip-rule="evenodd" d="M20.5555 11.7304H11.3301V11.4668H20.5555V11.7304Z" fill="#161616"/>
<path fill-rule="evenodd" clip-rule="evenodd" d="M19.7645 12.6532H10.5391V12.3896H19.7645V12.6532Z" fill="#161616"/>
<path fill-rule="evenodd" clip-rule="evenodd" d="M18.9744 13.5751H9.74902V13.3115H18.9744V13.5751Z" fill="#161616"/>
<path d="M17.5898 10.6765L21.8731 4.08691V10.6765H17.5898Z" fill="#161616"/>
<path d="M80.9326 21V3H89.6978C92.6196 3 94.0804 4.46087 94.0804 7.38261V10.3565C94.0804 12.5304 93.2717 13.887 91.6544 14.4261L94.6022 20.2174L94.1587 21H90.9239L87.7413 14.7391H84.6891V21H80.9326ZM84.6891 11.3478H89.5413C90.0631 11.3478 90.3239 11.087 90.3239 10.5652V7.17391C90.3239 6.65217 90.0631 6.39131 89.5413 6.39131H84.6891V11.3478Z" fill="white"/>
<path d="M61.8877 20.2957L67.2355 3H72.9747L78.3225 20.2957L77.8529 21H74.7225L73.6268 17.3478H66.5833L65.4877 21H62.3573L61.8877 20.2957ZM67.6007 13.9565H72.6094L70.3138 6.39131H69.8964L67.6007 13.9565Z" fill="white"/>
<path d="M47.8154 21V3H60.1285V6.39131H51.572V10.0435H59.3459V13.4348H51.572V17.6087H60.1285V21H47.8154Z" fill="white"/>
<path d="M29.873 16.6174V7.38261C29.873 4.46087 31.3339 3 34.2557 3H41.7948L43.5426 4.35652V6.39131H34.4122C33.8904 6.39131 33.6296 6.65217 33.6296 7.17391V16.8261C33.6296 17.3478 33.8904 17.6087 34.4122 17.6087H40.3078V13.4348H36.8643V10.0435H44.0644V21H34.2557C31.3339 21 29.873 19.5391 29.873 16.6174Z" fill="white"/>
<defs>
<linearGradient id="paint0_linear_1177_63798" x1="0.664546" y1="24.5224" x2="25.2259" y2="4.37477" gradientUnits="userSpaceOnUse">
<stop stop-color="#9945FF"/>
<stop offset="0.14" stop-color="#8A53F4"/>
<stop offset="0.42" stop-color="#6377D6"/>
<stop offset="0.79" stop-color="#24B0A7"/>
<stop offset="0.99" stop-color="#00D18C"/>
<stop offset="1" stop-color="#00D18C"/>
</linearGradient>
</defs>
</svg>
