<svg width="99" height="25" viewBox="0 0 99 25" fill="none" xmlns="http://www.w3.org/2000/svg">
<ellipse cx="8.86956" cy="15.6304" rx="8.86956" ry="8.86956" fill="#8672FF"/>
<path fill-rule="evenodd" clip-rule="evenodd" d="M16.4348 15.4565C20.5649 15.4565 23.9131 12.1084 23.9131 7.97826C23.9131 3.84813 20.5649 0.5 16.4348 0.5C12.3047 0.5 8.95654 3.84813 8.95654 7.97826C8.95654 8.90787 9.12616 9.79786 9.43614 10.619C9.25022 10.5978 9.06118 10.587 8.86961 10.587C6.1322 10.587 3.91309 12.8061 3.91309 15.5435C3.91309 18.2809 6.1322 20.5 8.86961 20.5C11.607 20.5 13.8261 18.2809 13.8261 15.5435C13.8261 15.3519 13.8153 15.1628 13.7941 14.9769C14.6152 15.2869 15.5052 15.4565 16.4348 15.4565Z" fill="white"/>
<circle cx="16.4347" cy="7.97825" r="6.17391" fill="#FC72FF"/>
<ellipse cx="8.86946" cy="15.5435" rx="3.65217" ry="3.65217" fill="#FC72FF"/>
<rect x="11.688" y="14.0029" width="1.82309" height="1.65217" transform="rotate(-133.548 11.688 14.0029)" fill="#FC72FF"/>
<path d="M44.6753 5.5H47.7129V19.2863H44.6753V5.5Z" fill="#222222"/>
<path d="M34.8188 5.5H37.3307L43.3282 19.2863H39.9011L38.7133 16.3655H33.3584L32.2096 19.2863H28.8604L34.8188 5.5ZM35.9872 9.51126L34.3126 13.7951H37.6812L35.9872 9.51126Z" fill="#222222"/>
<path d="M94.6895 17.543C94.6895 17.3046 94.7334 17.0788 94.8212 16.8656C94.909 16.6523 95.0282 16.4704 95.1787 16.3199C95.3418 16.1568 95.53 16.0313 95.7432 15.9435C95.9565 15.8557 96.1823 15.8118 96.4206 15.8118C96.659 15.8118 96.8848 15.8557 97.0981 15.9435C97.3113 16.0313 97.4932 16.1568 97.6438 16.3199C97.8068 16.4704 97.9323 16.6523 98.0201 16.8656C98.1079 17.0788 98.1518 17.3046 98.1518 17.543C98.1518 17.7813 98.1079 18.0071 98.0201 18.2204C97.9323 18.4337 97.8068 18.6218 97.6438 18.7849C97.4932 18.9355 97.3113 19.0546 97.0981 19.1424C96.8848 19.2303 96.659 19.2742 96.4206 19.2742C96.1823 19.2742 95.9565 19.2303 95.7432 19.1424C95.53 19.0546 95.3418 18.9355 95.1787 18.7849C95.0282 18.6218 94.909 18.4337 94.8212 18.2204C94.7334 18.0071 94.6895 17.7813 94.6895 17.543Z" fill="#222222"/>
<path d="M84.9971 5.83871H87.9326V16.4516H93.3707V19.1613H84.9971V5.83871Z" fill="#222222"/>
<path d="M74.8901 5.83871H77.8256V16.4516H83.2638V19.1613H74.8901V5.83871Z" fill="#222222"/>
<path d="M63.0371 5.83871H72.0882V8.54839H65.9726V11.0323H71.7495V13.7419H65.9726V16.4516H72.4269V19.1613H63.0371V5.83871Z" fill="#222222"/>
<path d="M58.7551 9.30107C58.4665 8.94982 58.109 8.68011 57.6825 8.49194C57.2685 8.30376 56.7855 8.20968 56.2336 8.20968C55.6816 8.20968 55.1672 8.31631 54.6905 8.52957C54.2264 8.74283 53.8187 9.04391 53.4674 9.4328C53.1287 9.80914 52.859 10.2608 52.6583 10.7876C52.4701 11.3145 52.376 11.8853 52.376 12.5C52.376 13.1272 52.4701 13.7043 52.6583 14.2312C52.859 14.7455 53.1287 15.1971 53.4674 15.586C53.8061 15.9624 54.2013 16.2572 54.6529 16.4704C55.1171 16.6837 55.6126 16.7903 56.1395 16.7903C56.7416 16.7903 57.2748 16.6649 57.7389 16.414C58.2031 16.1631 58.5857 15.8118 58.8868 15.3602L61.333 17.1855C60.7685 17.9758 60.0534 18.5591 59.1879 18.9355C58.3223 19.3118 57.4316 19.5 56.5158 19.5C55.4746 19.5 54.5149 19.3369 53.6368 19.0108C52.7586 18.6846 51.9997 18.2204 51.3599 17.6183C50.7201 17.0036 50.2183 16.2634 49.8545 15.3979C49.5033 14.5323 49.3276 13.5663 49.3276 12.5C49.3276 11.4337 49.5033 10.4677 49.8545 9.60215C50.2183 8.73656 50.7201 8.00269 51.3599 7.40054C51.9997 6.78584 52.7586 6.31541 53.6368 5.98925C54.5149 5.66308 55.4746 5.5 56.5158 5.5C56.8922 5.5 57.281 5.53763 57.6825 5.6129C58.0965 5.67563 58.4979 5.78226 58.8868 5.9328C59.2882 6.08333 59.6708 6.28405 60.0346 6.53495C60.3984 6.78584 60.7246 7.09319 61.0131 7.45699L58.7551 9.30107Z" fill="#222222"/>
</svg>
