<svg width="32" height="32" viewBox="0 0 32 32" fill="none" xmlns="http://www.w3.org/2000/svg">
<g id="Group">
<path id="Vector" d="M31.0721 26.8188C32.1856 27.9323 32.1856 29.9661 31.0721 31.0721C30.5154 31.6289 29.7806 32 28.8527 32C28.1104 32 27.19 31.6289 26.6333 31.0721L15.9072 20.3461L5.18116 31.0721C4.06773 32.1856 2.03387 32.1856 0.927859 31.0721C-0.178149 29.9587 -0.185572 27.9248 0.927859 26.8188L11.6539 16.0928L0.927859 5.36673C0.371144 4.81002 0 4.07516 0 3.1473C0 2.40501 0.371144 1.48457 0.927859 0.927859C2.04129 -0.185572 4.07516 -0.185572 5.18116 0.927859L15.9072 11.6539L26.6333 0.927859C27.19 0.371144 27.9248 0 28.8527 0C29.595 0 30.5154 0.371144 31.0721 0.927859C31.6289 1.48457 32 2.21944 32 3.1473C32 3.88958 31.6289 4.81002 31.0721 5.36673L20.3461 16.0928L31.0721 26.8188Z" fill="#EB0707"/>
</g>
</svg>
