<svg width="14" height="14" viewBox="0 0 14 14" fill="none" xmlns="http://www.w3.org/2000/svg">
<g id="Frame">
<path id="Vector" d="M7 1.03953e-06C5.61553 1.03953e-06 4.26216 0.410544 3.11101 1.17971C1.95987 1.94888 1.06266 3.04213 0.532846 4.32122C0.00303297 5.6003 -0.13559 7.00777 0.134506 8.36563C0.404603 9.7235 1.07129 10.9708 2.05026 11.9497C3.02922 12.9287 4.2765 13.5954 5.63437 13.8655C6.99224 14.1356 8.3997 13.997 9.67879 13.4672C10.9579 12.9373 12.0511 12.0401 12.8203 10.889C13.5895 9.73785 14 8.38447 14 7C14.0005 6.08061 13.8198 5.17013 13.4682 4.32062C13.1166 3.47112 12.601 2.69925 11.9509 2.04914C11.3008 1.39903 10.5289 0.883429 9.67938 0.531824C8.82988 0.180218 7.9194 -0.000500129 7 1.03953e-06ZM10.3932 8.00654H6.83225C6.65898 8.00654 6.49276 7.93797 6.36989 7.81581C6.24702 7.69366 6.17748 7.52784 6.17647 7.35458V2.80991C6.16959 2.71985 6.18139 2.62933 6.21113 2.54404C6.24087 2.45875 6.28791 2.38052 6.3493 2.31426C6.41069 2.248 6.4851 2.19514 6.56788 2.15899C6.65066 2.12284 6.74001 2.10417 6.83034 2.10417C6.92067 2.10417 7.01002 2.12284 7.0928 2.15899C7.17558 2.19514 7.24999 2.248 7.31138 2.31426C7.37277 2.38052 7.41981 2.45875 7.44955 2.54404C7.47929 2.62933 7.49109 2.71985 7.48421 2.80991V6.70643H10.3932C10.558 6.71902 10.712 6.79337 10.8243 6.91461C10.9367 7.03584 10.9991 7.19502 10.9991 7.3603C10.9991 7.52557 10.9367 7.68475 10.8243 7.80598C10.712 7.92722 10.558 8.00157 10.3932 8.01416V8.00654Z" fill="#FC72FF"/>
</g>
</svg>
