<svg width="15" height="14" viewBox="0 0 15 14" fill="none" xmlns="http://www.w3.org/2000/svg">
<path d="M7.5 1.03953e-06C6.11553 1.03953e-06 4.76216 0.410544 3.61101 1.17971C2.45987 1.94888 1.56266 3.04213 1.03285 4.32122C0.503033 5.6003 0.36441 7.00777 0.634506 8.36563C0.904603 9.7235 1.57129 10.9708 2.55026 11.9497C3.52922 12.9287 4.7765 13.5954 6.13437 13.8655C7.49224 14.1356 8.8997 13.997 10.1788 13.4672C11.4579 12.9373 12.5511 12.0401 13.3203 10.889C14.0895 9.73785 14.5 8.38447 14.5 7C14.5005 6.08061 14.3198 5.17013 13.9682 4.32062C13.6166 3.47112 13.101 2.69925 12.4509 2.04914C11.8008 1.39903 11.0289 0.883429 10.1794 0.531824C9.32987 0.180218 8.4194 -0.000500129 7.5 1.03953e-06ZM10.8932 8.00654H7.33225C7.15898 8.00654 6.99276 7.93797 6.86989 7.81581C6.74702 7.69366 6.67748 7.52784 6.67647 7.35458V2.80991C6.66959 2.71985 6.68139 2.62933 6.71113 2.54404C6.74087 2.45875 6.78791 2.38052 6.8493 2.31426C6.91069 2.248 6.9851 2.19514 7.06788 2.15899C7.15066 2.12284 7.24001 2.10417 7.33034 2.10417C7.42067 2.10417 7.51002 2.12284 7.5928 2.15899C7.67558 2.19514 7.74999 2.248 7.81138 2.31426C7.87277 2.38052 7.91981 2.45875 7.94955 2.54404C7.97929 2.62933 7.99109 2.71985 7.98421 2.80991V6.70643H10.8932C11.058 6.71902 11.212 6.79337 11.3243 6.91461C11.4367 7.03584 11.4991 7.19502 11.4991 7.3603C11.4991 7.52557 11.4367 7.68475 11.3243 7.80598C11.212 7.92722 11.058 8.00157 10.8932 8.01416V8.00654Z" fill="#17FB9B"/>
</svg>
