<svg width="76" height="76" viewBox="0 0 76 76" fill="none" xmlns="http://www.w3.org/2000/svg">
<g id="Group 1321315519">
<path id="Ellipse 825" d="M76 38C76 58.9868 58.9868 76 38 76C17.0132 76 0 58.9868 0 38C0 17.0132 17.0132 0 38 0C58.9868 0 76 17.0132 76 38ZM16.3891 38C16.3891 49.9354 26.0646 59.6109 38 59.6109C49.9354 59.6109 59.6109 49.9354 59.6109 38C59.6109 26.0646 49.9354 16.3891 38 16.3891C26.0646 16.3891 16.3891 26.0646 16.3891 38Z" fill="#FFEFFF"/>
<path id="Ellipse 826" d="M43.9433 67.3518C44.8259 71.7106 49.1305 74.6045 53.2061 72.8249C55.5765 71.7899 57.8414 70.5128 59.9636 69.0097C64.2842 65.9495 67.9176 62.0202 70.6309 57.4737C73.3441 52.9273 75.0774 47.864 75.7195 42.6085C76.0349 40.0272 76.0836 37.4275 75.8692 34.8499C75.5005 30.4179 70.91 28.0033 66.6547 29.2959C62.3994 30.5885 60.1607 35.1588 59.8369 39.5942C59.811 39.9483 59.7766 40.3022 59.7334 40.6554C59.3634 43.6835 58.3647 46.6009 56.8014 49.2205C55.238 51.8401 53.1445 54.1041 50.6551 55.8673C50.3647 56.073 50.0697 56.2713 49.7703 56.4622C46.0203 58.8529 43.0607 62.993 43.9433 67.3518Z" fill="#FC72FF"/>
</g>
</svg>
