<svg width="20" height="20" viewBox="0 0 20 20" fill="none" xmlns="http://www.w3.org/2000/svg">
<path d="M8.57499 3.21684L1.51665 15.0002C1.37113 15.2522 1.29413 15.5379 1.29331 15.8289C1.2925 16.12 1.3679 16.4061 1.51201 16.6589C1.65612 16.9118 1.86392 17.1225 2.11474 17.27C2.36556 17.4176 2.65065 17.497 2.94165 17.5002H17.0583C17.3493 17.497 17.6344 17.4176 17.8852 17.27C18.136 17.1225 18.3439 16.9118 18.488 16.6589C18.6321 16.4061 18.7075 16.12 18.7067 15.8289C18.7058 15.5379 18.6288 15.2522 18.4833 15.0002L11.425 3.21684C11.2764 2.97193 11.0673 2.76944 10.8176 2.62891C10.568 2.48838 10.2864 2.41455 9.99999 2.41455C9.71354 2.41455 9.43193 2.48838 9.18232 2.62891C8.93272 2.76944 8.72355 2.97193 8.57499 3.21684Z" stroke="#7D7D7D" stroke-width="1.66667" stroke-linecap="round" stroke-linejoin="round"/>
<path d="M10 7.5V10.8333" stroke="#7D7D7D" stroke-width="1.66667" stroke-linecap="round" stroke-linejoin="round"/>
<path d="M10 14.1665H10.0083" stroke="#7D7D7D" stroke-width="1.66667" stroke-linecap="round" stroke-linejoin="round"/>
</svg>
