<svg width="24" height="24" viewBox="0 0 24 24" fill="none" xmlns="http://www.w3.org/2000/svg">
<path d="M17.7923 9.15891C17.5804 8.94703 17.2372 8.94703 17.0253 9.15891L12.4754 13.7088L7.92589 9.15891C7.71401 8.94703 7.37077 8.94703 7.15891 9.15891C6.94703 9.37077 6.94703 9.71403 7.15891 9.9259L12.0738 14.8411C12.1797 14.947 12.3184 15 12.4573 15C12.4633 15 12.4694 14.9985 12.4754 14.9982C12.4818 14.9985 12.4878 15 12.4939 15C12.6328 15 12.7714 14.947 12.8774 14.8411L17.7923 9.9259C18.0042 9.71403 18.0042 9.37077 17.7923 9.15891Z" fill="#17FB9B" stroke="#17FB9B" stroke-width="0.4"/>
</svg>
