<svg width="24" height="24" viewBox="0 0 24 24" fill="none" xmlns="http://www.w3.org/2000/svg">
<circle cx="12" cy="12" r="12" fill="url(#paint0_linear_1404_20580)"/>
<g clip-path="url(#clip0_1404_20580)">
<path d="M17.448 16.356C17.448 16.508 17.422 16.65 17.37 16.782C17.318 16.914 17.244 17.03 17.148 17.13C17.052 17.23 16.94 17.308 16.812 17.364C16.684 17.42 16.544 17.448 16.392 17.448H7.68C7.528 17.448 7.384 17.42 7.248 17.364C7.112 17.308 6.992 17.23 6.888 17.13C6.784 17.03 6.702 16.914 6.642 16.782C6.582 16.65 6.552 16.508 6.552 16.356V10.368C6.552 10.064 6.658 9.80603 6.87 9.59403C7.082 9.38203 7.34 9.27603 7.644 9.27603H16.356C16.66 9.27603 16.918 9.38203 17.13 9.59403C17.342 9.80603 17.448 10.064 17.448 10.368V12H14.724C14.42 12 14.162 12.104 13.95 12.312C13.738 12.52 13.632 12.776 13.632 13.08C13.64 13.288 13.684 13.472 13.764 13.632C13.828 13.768 13.934 13.892 14.082 14.004C14.23 14.116 14.444 14.172 14.724 14.172H17.448V16.356ZM15.816 8.72403H10.368C10.8 8.50003 11.208 8.28403 11.592 8.07603C11.928 7.90003 12.26 7.72403 12.588 7.54803C12.916 7.37203 13.172 7.23603 13.356 7.14003C13.636 6.98803 13.886 6.91803 14.106 6.93003C14.326 6.94203 14.512 6.98003 14.664 7.04403C14.84 7.13203 14.992 7.24803 15.12 7.39203L15.816 8.72403ZM14.184 13.08C14.184 12.928 14.236 12.8 14.34 12.696C14.444 12.592 14.572 12.54 14.724 12.54C14.876 12.54 15.004 12.592 15.108 12.696C15.212 12.8 15.264 12.928 15.264 13.08C15.264 13.232 15.212 13.362 15.108 13.47C15.004 13.578 14.876 13.632 14.724 13.632C14.572 13.632 14.444 13.578 14.34 13.47C14.236 13.362 14.184 13.232 14.184 13.08Z" fill="white"/>
</g>
<defs>
<linearGradient id="paint0_linear_1404_20580" x1="0.729159" y1="24.5233" x2="25.6375" y2="2.10625" gradientUnits="userSpaceOnUse">
<stop stop-color="#9945FF"/>
<stop offset="0.14" stop-color="#8A53F4"/>
<stop offset="0.42" stop-color="#6377D6"/>
<stop offset="0.79" stop-color="#24B0A7"/>
<stop offset="0.99" stop-color="#00D18C"/>
<stop offset="1" stop-color="#00D18C"/>
</linearGradient>
<clipPath id="clip0_1404_20580">
<rect width="12" height="12" fill="white" transform="translate(6 6)"/>
</clipPath>
</defs>
</svg>
