<svg width="22" height="22" viewBox="0 0 22 22" fill="none" xmlns="http://www.w3.org/2000/svg">
<path d="M2.74218 12.1332C2.39973 11.7741 2.85368 11.8784 2.85368 11.8784L3.57044 12.6816L3.50408 12.769C3.51735 12.7787 3.53593 12.7884 3.55983 12.8005C3.56779 12.8029 3.5731 12.8054 3.58372 12.8078C3.63416 12.8248 3.68725 12.8369 3.743 12.8369C3.97927 12.8369 4.16775 12.6646 4.16775 12.4487C4.16775 12.2812 4.0244 12.1672 3.89432 12.0871C3.28109 11.6576 2.94394 11.1553 2.94394 10.6457C2.94394 9.47857 4.75444 8.457 7.46487 7.89161H7.46221C7.46221 7.89161 7.51 7.86492 7.5684 7.83095L7.50203 7.78242C7.50203 7.78242 7.73299 7.69264 7.74361 7.69021C7.75423 7.68778 8.03032 7.77999 7.99315 7.80183C8.4763 7.68778 8.83203 7.2874 8.83203 6.80937C8.83203 6.24156 8.3303 5.78537 7.71175 5.78537C7.69052 5.78537 7.66662 5.78537 7.64539 5.7878V5.77809C7.6268 5.78052 7.60822 5.7878 7.58964 5.79265C7.47549 5.80478 7.3693 5.82905 7.26842 5.8703C3.99519 6.69047 1.77322 8.28229 1.77322 10.107C1.77057 10.8326 2.11833 11.5193 2.74218 12.1332Z" fill="url(#paint0_linear_2265_9534)"/>
<path d="M7.7436 7.68781C7.73298 7.69024 7.50203 7.78002 7.50203 7.78002L7.56839 7.82855C7.50999 7.86252 7.46221 7.88921 7.46221 7.88921H7.46486L7.74626 7.84068C7.83917 7.82855 7.95332 7.81156 7.98518 7.79943H7.99049C8.03031 7.77759 7.75422 7.68538 7.7436 7.68781ZM2.85368 11.8784C2.85368 11.8784 2.39973 11.7741 2.74218 12.1332L2.74748 12.1381C3.06605 12.4681 3.42974 12.718 3.49611 12.7617C3.50407 12.7666 3.50673 12.769 3.50673 12.769L3.57309 12.6816L2.85368 11.8784Z" fill="#FB6D3A" fill-opacity="0.1"/>
<path d="M7.45767 6.3331C7.49322 6.31856 7.53357 6.3068 7.58173 6.29832L7.6943 6.28546L7.69882 6.2854L7.71175 6.28537C8.09819 6.28537 8.33203 6.55977 8.33203 6.80937C8.33203 6.98026 8.22765 7.15773 8.03675 7.25694C8.00432 7.24489 7.9727 7.23401 7.94599 7.22538C7.92881 7.21983 7.90964 7.2139 7.89134 7.20888C7.88307 7.2066 7.86859 7.20274 7.85173 7.19918C7.84398 7.19755 7.82772 7.19426 7.80731 7.19171C7.79717 7.19044 7.77944 7.18851 7.75735 7.18794C7.74141 7.18752 7.6926 7.18658 7.63221 7.20038C7.60951 7.20556 7.59117 7.21156 7.58889 7.2123L7.58869 7.21236L7.57495 7.21697L7.5581 7.22301L7.52442 7.2356L7.43913 7.26823L7.35761 7.29974L7.33102 7.31005L7.32356 7.31295L7.32158 7.31372L7.32106 7.31392L7.32092 7.31397L7.32088 7.31399L7.32087 7.31399L7.32168 7.31608L7.32167 7.31608L7.32086 7.31399L6.71301 7.55029C5.60551 7.82542 4.65143 8.18448 3.9319 8.61357C3.10194 9.10851 2.44394 9.78576 2.44394 10.6457C2.44394 10.7446 2.45257 10.8416 2.46912 10.9365C2.33621 10.6597 2.27222 10.3828 2.27322 10.1089V10.107C2.27322 9.41405 2.69494 8.69051 3.59471 8.01094C4.4893 7.33528 5.79485 6.75499 7.38995 6.3553L7.4246 6.34662L7.45767 6.3331ZM7.75845 6.26418L7.75844 6.26419L7.75845 6.26418Z" stroke="url(#paint1_linear_2265_9534)"/>
<path d="M18.0702 18.1677V18.1667V3.5729C18.0702 2.34043 17.1591 1.4 16.1155 1.4H6.70728C5.6586 1.4 4.75257 2.33726 4.75257 3.5729V18.1667C4.75257 19.0352 5.27248 19.7433 5.94768 19.9839C7.49805 20.3701 9.37737 20.6 11.4114 20.6C13.4529 20.6 15.3367 20.3703 16.889 19.9816C17.5587 19.7357 18.0724 19.0346 18.0702 18.1677Z" fill="#19F99C" fill-opacity="0.12" stroke="url(#paint2_linear_2265_9534)" stroke-width="0.8"/>
<path d="M13.7686 15.0242C17.8245 14.6356 20.8199 13.2582 20.8199 11.6243C20.8199 11.048 20.4478 10.4954 19.786 10.0143C19.669 9.94026 19.5893 9.80807 19.5893 9.65738C19.5893 9.42208 19.7807 9.23438 20.0146 9.23438C20.0146 9.23438 20.1714 9.23702 20.3255 9.36656C21.3834 10.1888 22 11.1617 22 12.2086C22 14.7175 18.481 16.8114 13.7659 17.3428V18.6461L9.05882 16.3038L13.7659 13.9614V15.0242H13.7686Z" fill="url(#paint3_linear_2265_9534)"/>
<path d="M13.8163 15.5219L13.7925 15.5242H13.7686H13.7659H13.2659V15.0242V14.7687L10.1811 16.3038L13.2659 17.8388V17.3428V16.896L13.7099 16.8459C16.0154 16.5861 17.9984 15.9467 19.3892 15.0914C20.7942 14.2273 21.5 13.2096 21.5 12.2086C21.5 11.8871 21.4272 11.5644 21.281 11.2452C21.3065 11.3683 21.3199 11.4947 21.3199 11.6243C21.3199 12.1964 21.0556 12.7056 20.6522 13.1332C20.2513 13.5583 19.6915 13.9282 19.0299 14.2428C17.7055 14.8725 15.8813 15.324 13.8163 15.5219Z" stroke="url(#paint4_linear_2265_9534)"/>
<defs>
<linearGradient id="paint0_linear_2265_9534" x1="7.87965" y1="11.1604" x2="0.486496" y2="8.93258" gradientUnits="userSpaceOnUse">
<stop stop-color="#C8F284"/>
<stop offset="1" stop-color="#17FB9B"/>
</linearGradient>
<linearGradient id="paint1_linear_2265_9534" x1="7.87965" y1="11.1604" x2="0.486496" y2="8.93258" gradientUnits="userSpaceOnUse">
<stop stop-color="#C8F284"/>
<stop offset="1" stop-color="#17FB9B"/>
</linearGradient>
<linearGradient id="paint2_linear_2265_9534" x1="16.5655" y1="5.75" x2="1.13464" y2="9.03231" gradientUnits="userSpaceOnUse">
<stop stop-color="#C8F284"/>
<stop offset="1" stop-color="#17FB9B"/>
</linearGradient>
<linearGradient id="paint3_linear_2265_9534" x1="20.254" y1="11.4697" x2="7.63542" y2="16.6981" gradientUnits="userSpaceOnUse">
<stop stop-color="#C8F284"/>
<stop offset="1" stop-color="#17FB9B"/>
</linearGradient>
<linearGradient id="paint4_linear_2265_9534" x1="20.254" y1="11.4697" x2="7.63542" y2="16.6981" gradientUnits="userSpaceOnUse">
<stop stop-color="#C8F284"/>
<stop offset="1" stop-color="#17FB9B"/>
</linearGradient>
</defs>
</svg>
