<svg width="48" height="48" viewBox="0 0 48 48" fill="none" xmlns="http://www.w3.org/2000/svg">
<path fill-rule="evenodd" clip-rule="evenodd" d="M21.4489 5.26352C22.2277 4.82507 23.1063 4.59473 24 4.59473C24.8938 4.59473 25.7724 4.82507 26.5512 5.26352C27.3299 5.70197 27.9825 6.33374 28.446 7.09786L28.4495 7.10356L45.3994 35.4001C45.8534 36.1864 46.0935 37.0779 46.0961 37.9859C46.0986 38.8939 45.8634 39.7867 45.4137 40.5755C44.9641 41.3643 44.3157 42.0217 43.5332 42.4822C42.7506 42.9426 41.8612 43.1902 40.9532 43.2001L40.94 43.2003L7.04686 43.2002C6.13893 43.1902 5.24945 42.9426 4.4669 42.4822C3.68434 42.0217 3.036 41.3643 2.58637 40.5755C2.13673 39.7867 1.90148 38.8939 1.90403 37.9859C1.90657 37.0779 2.14681 36.1864 2.60086 35.4001L2.61047 35.3835L19.5506 7.10357L19.554 7.09786C20.0175 6.33374 20.6702 5.70197 21.4489 5.26352ZM24 6.99473C23.5188 6.99473 23.0457 7.11876 22.6264 7.35485C22.2079 7.59044 21.8571 7.92969 21.6076 8.33997C21.6071 8.34084 21.6066 8.3417 21.606 8.34257L4.67486 36.6079C4.43321 37.0294 4.30538 37.5066 4.30402 37.9926C4.30265 38.4815 4.42932 38.9623 4.67143 39.387C4.91354 39.8118 5.26265 40.1657 5.68402 40.4137C6.10368 40.6606 6.58043 40.7938 7.06722 40.8002H40.9329C41.4197 40.7938 41.8964 40.6606 42.3161 40.4137C42.7374 40.1657 43.0866 39.8118 43.3287 39.387C43.5708 38.9623 43.6974 38.4815 43.6961 37.9926C43.6947 37.5066 43.5669 37.0295 43.3253 36.6079L26.394 8.34257C26.3935 8.3417 26.393 8.34084 26.3925 8.33997C26.143 7.92969 25.7922 7.59044 25.3737 7.35485C24.9544 7.11876 24.4813 6.99473 24 6.99473ZM24 16.7998C24.6627 16.7998 25.2 17.3371 25.2 17.9998V25.9998C25.2 26.6625 24.6627 27.1998 24 27.1998C23.3373 27.1998 22.8 26.6625 22.8 25.9998V17.9998C22.8 17.3371 23.3373 16.7998 24 16.7998ZM22.8 33.9998C22.8 33.3371 23.3373 32.7998 24 32.7998H24.02C24.6827 32.7998 25.22 33.3371 25.22 33.9998C25.22 34.6625 24.6827 35.1998 24.02 35.1998H24C23.3373 35.1998 22.8 34.6625 22.8 33.9998Z" fill="#17FB9B"/>
</svg>
