<svg width="112" height="128" viewBox="0 0 112 128" fill="none" xmlns="http://www.w3.org/2000/svg">
<path d="M104.308 57.0773H103.154C102.462 57.0773 101.923 57.5389 101.923 58.2312C101.923 58.9235 102.385 59.4619 103.077 59.4619H104.308V60.6157C104.308 61.2312 104.846 61.7697 105.462 61.7697C106.077 61.7697 106.615 61.2312 106.615 60.6157V59.4619H107.769C108.462 59.4619 108.923 58.8465 108.923 58.2312C108.923 57.6158 108.385 57.1542 107.769 57.0773H106.692V55.9235C106.692 55.3081 106.154 54.7697 105.538 54.7697C104.923 54.7697 104.385 55.3081 104.385 55.9235V57.0773H104.308ZM19 36.8465C19 37.6157 19.3846 38.3081 20.077 38.6927C20.7692 39.0773 21.5385 39.0773 22.2308 38.6927C22.8462 38.3081 23.3077 37.6157 23.3077 36.8465C23.3077 36.0773 22.923 35.385 22.2308 35.0004C21.5384 34.6157 20.7692 34.6157 20.077 35.0004C19.3846 35.385 19 36.0773 19 36.8465Z" fill="#515062"/>
<path d="M91.6154 90.4614L80.3846 63.3076H34.7692L23.6154 90.4614H23.3076V113.308H91.923V90.4614H91.6154Z" fill="#515062"/>
<path d="M91.923 113.308H23.3077V90.4614H23.6153L34.8462 63.3076H80.4615L91.6924 90.4614H91.9231L92.0001 91.0768L91.923 113.308ZM24.5385 112.077H90.5385V91.3846L79.5385 64.6153H35.6923L24.5385 91.3846V112.077V112.077Z" fill="#29283B"/>
<path d="M35 81.6924L24.5385 111.615L25.9231 112.077L36.3846 82.1539L35 81.6924ZM80.1538 81.6924L90.6154 111.615L89.2308 112.077L78.8462 82.1539L80.1538 81.6924Z" fill="#29283B"/>
<path d="M50.4615 90.4619H23.3077V113.308H91.923V90.4619H64.7692C64.7692 93.0004 63.4616 95.4619 61.2308 96.7695C60.1341 97.4118 58.8862 97.7503 57.6154 97.7503C56.3445 97.7503 55.0966 97.4118 54 96.7695C51.7692 95.4619 50.3846 93.0004 50.4615 90.4619Z" fill="#515062"/>
<path d="M91.923 113.308H23.3077V90.4617H50.4615L50.5385 91.0771C50.8461 94.7694 54 97.6155 57.6923 97.6155C61.3847 97.6155 64.5385 94.7694 64.8462 91.0771L64.923 90.4617H92.077L91.923 113.308ZM24.5385 112.077H90.5385V91.7694H65.923C65.3077 95.8463 61.7692 98.9232 57.6154 98.9232C53.4616 98.9232 49.923 95.8463 49.3077 91.7694H24.5385V112.077ZM86.1538 37.5387L96.1538 41.8463L101.846 20.3848L86.1538 37.5387ZM101.923 20.3848L74.7692 33.3079L83.3077 37.5387L101.923 20.3848ZM86.1538 39.0002V46.154L90.4615 41.8464L86.1538 39.0002Z" fill="#29283B"/>
<path d="M86.1538 37.5387L96.1538 41.8463L101.846 20.3848L86.1538 37.5387ZM101.923 20.3848L74.7692 33.3079L83.3077 37.5387L101.923 20.3848ZM86.1538 39.0002V46.154L90.4615 41.8464L86.1538 39.0002Z" fill="#17FB9B"/>
<path d="M34.6924 63.3076H80.4615V83.3076H34.6924V63.3076Z" fill="#434254"/>
<path d="M80.4615 83.3076H34.6924V63.3076H80.4616V83.3076H80.4615ZM36 81.9998H79.1538V64.6152H36V81.9999V81.9998Z" fill="#29283B"/>
<path d="M47.2308 77.5385C48.077 77.0769 48.9232 76.6923 49.7692 76.2308C50.0769 76 50.2308 75.6153 50 75.3077C49.8462 75 49.3846 74.8461 49.077 75C48.2308 75.4615 47.3846 75.923 46.5385 76.3076C46.1538 76.4615 46.077 76.923 46.2309 77.3076C46.4615 77.5385 46.8461 77.6923 47.2309 77.5385H47.2308ZM52.2308 74.7692C53.077 74.3077 53.8462 73.7692 54.6923 73.2308C55 73 55.077 72.5384 54.9231 72.2308C54.6923 71.9231 54.2308 71.8461 53.9231 72C53.1538 72.5385 52.3077 73 51.5385 73.5385C51.2309 73.6923 51.077 74.1538 51.3077 74.4615C51.4615 74.8461 51.9231 74.9231 52.2308 74.7692ZM57.077 71.4615C57.8462 70.8461 58.6154 70.2308 59.3077 69.6153C59.6153 69.3846 59.6153 68.923 59.3846 68.6153C59.1538 68.3077 58.6923 68.3077 58.3846 68.5385C57.6923 69.1538 57 69.7692 56.2308 70.3077C55.9232 70.5385 55.9232 71 56.1538 71.3077C56.3077 71.6153 56.7692 71.6923 57.077 71.4615ZM61.3846 67.6153C62.077 66.923 62.6923 66.1538 63.2308 65.3077C63.4615 65 63.3846 64.5385 63.077 64.3077C62.7692 64.0769 62.3077 64.1538 62.077 64.4615C61.5385 65.2308 60.9231 65.923 60.3077 66.6153C60.077 66.923 60.077 67.3846 60.3846 67.6153C60.6923 67.923 61.1538 67.8461 61.3846 67.6153ZM64.8462 62.6923C64.6923 63.0769 64.2308 63.2308 63.9231 63.0769C63.5385 62.923 63.3846 62.4615 63.5385 62.1538C63.9231 61.3077 64.2309 60.4614 64.4615 59.6153C64.5385 59.2308 65 59 65.3077 59.1538C65.6923 59.2308 65.9231 59.6153 65.8462 60C65.6154 60.8461 65.3077 61.7692 64.8462 62.6923ZM66.2308 56.8461C66.1538 55.7692 65.8462 54.6923 65.1538 53.7692C64.9231 53.4615 64.4615 53.3846 64.1538 53.6153C63.8461 53.8461 63.7692 54.3077 64 54.6153C64.4615 55.3077 64.7692 56.0769 64.7692 56.923C64.8462 57.3077 65.1538 57.6154 65.5385 57.5385C65.6295 57.5389 65.7197 57.5212 65.8039 57.4866C65.8881 57.4519 65.9646 57.4009 66.0289 57.3365C66.0933 57.2722 66.1443 57.1957 66.179 57.1115C66.2136 57.0273 66.2312 56.9371 66.2308 56.8461ZM62.6924 51.6923C61.7693 51.2308 60.7693 50.923 59.7693 50.7692C59.5386 50.6923 59.2309 50.8461 59.077 51C58.9232 51.2308 58.8463 51.4615 59.0001 51.6923C59.0771 51.923 59.3077 52.0769 59.5386 52.1538C60.3847 52.3077 61.231 52.5385 62.0001 52.923C62.1143 52.9983 62.248 53.0384 62.3847 53.0384C62.5215 53.0384 62.6552 52.9983 62.7693 52.923C63.0001 52.7692 63.1539 52.5385 63.077 52.3077C63.077 52 62.9232 51.7692 62.6924 51.6923ZM56.6155 50.6923C55.3847 50.923 54.3847 51.3847 53.6155 52.0769C53.3078 52.3846 53.3078 52.7692 53.6155 53.0769C53.6924 53.1538 53.8463 53.2308 53.9232 53.3077C54.1539 53.3846 54.4616 53.3077 54.6155 53.1538C55.0771 52.6923 55.9232 52.3077 56.8463 52.1538C57.0771 52.0769 57.3078 51.923 57.3847 51.6923C57.5386 51.3077 57.3078 50.923 56.9232 50.7692C56.8463 50.6923 56.6924 50.6923 56.6155 50.6923ZM52.7693 55.4615C53.0001 56.3077 53.5386 57.2308 54.3847 58.1539C54.6155 58.4615 55.0771 58.4615 55.3847 58.2308C55.6924 58 55.6924 57.5384 55.4616 57.2308C54.7692 56.4615 54.3078 55.6923 54.154 55.0769C54.0771 54.8461 53.9232 54.6153 53.6155 54.6153C53.3847 54.5385 53.0771 54.6153 52.9232 54.8461C52.7693 55 52.6924 55.2308 52.7693 55.4615ZM56.7693 60.3077C57.6155 60.923 58.5386 61.3077 59.5386 61.6153C59.9232 61.6923 60.3078 61.4615 60.3847 61.0769C60.4616 60.6923 60.3078 60.3077 59.9232 60.2308C59.0771 60 58.2309 59.6153 57.5386 59.0769C57.231 58.8461 56.7693 59 56.5386 59.3077C56.3847 59.6153 56.4616 60.0769 56.7693 60.3077ZM62.6155 61.923C62.2309 61.923 61.8463 61.6154 61.8463 61.2307C61.8463 60.8459 62.1539 60.4615 62.5386 60.4615C63.4228 60.3892 64.2984 60.2347 65.1539 60C65.3847 59.923 65.6924 60 65.8463 60.1538C66.1539 60.3846 66.1539 60.8462 65.9232 61.1538C65.8463 61.2308 65.6924 61.3077 65.6155 61.3846C64.6924 61.6923 63.6155 61.923 62.6155 61.923ZM68.5386 60.1538C69.3847 59.6923 70.231 59.1538 71.0771 58.6153C71.3847 58.3846 71.4616 57.923 71.2309 57.6153C71.0001 57.3076 70.6155 57.2308 70.2309 57.4615C69.4616 58 68.6924 58.5385 67.9233 58.923C67.6924 59 67.5385 59.3077 67.5385 59.5385C67.5385 59.7692 67.6924 60.0769 67.8463 60.1538C68.0771 60.3077 68.3078 60.3077 68.5386 60.1538ZM73.231 56.8462C74.0001 56.2308 74.6924 55.5385 75.3078 54.8462C75.5386 54.5385 75.5386 54.1538 75.3078 53.8462C75.0001 53.5385 74.6154 53.5385 74.3078 53.8462C73.6924 54.5385 73.0001 55.1538 72.3078 55.7692C72.0001 56 72.0001 56.4615 72.3078 56.7692C72.5386 57.0769 72.9232 57.0769 73.2309 56.8461L73.231 56.8462ZM77.3847 52.6923C78.0001 51.923 78.6155 51.2308 79.2309 50.4615C79.4616 50.1539 79.3847 49.6923 79.0771 49.4615C78.7693 49.2308 78.3078 49.3077 78.0771 49.6153C77.5386 50.3846 76.9232 51.0769 76.3078 51.8461C76.0771 52.1538 76.1539 52.6153 76.3847 52.8461C76.6924 53 77.0771 52.923 77.3847 52.6923ZM80.9232 47.923C81.4616 47.1538 82.0001 46.3077 82.4616 45.4615C82.6924 45.1539 82.5386 44.6923 82.2309 44.4615C81.9233 44.2308 81.4616 44.3846 81.2309 44.6923C80.7693 45.4615 80.2309 46.3077 79.6924 47.0769C79.5386 47.3077 79.5386 47.5385 79.6155 47.7692C79.6924 48 80.0001 48.1538 80.2309 48.1538C80.5385 48.3077 80.7692 48.1538 80.9232 47.923ZM83.8463 43.0769C84.1539 42.5385 84.3847 42 84.6924 41.4615C84.8463 41.0769 84.6924 40.6923 84.3078 40.5385C84.0001 40.3846 83.6154 40.5385 83.3847 40.8461C83.1539 41.3846 82.8463 41.923 82.6155 42.3846C82.4616 42.7692 82.5386 43.1538 82.9232 43.3846C83.2309 43.5385 83.6924 43.3845 83.8463 43.0769ZM57.6154 21.0769C55.6923 21.0769 54.077 19.5385 54.077 17.5385C54.077 15.6153 55.6154 14 57.6154 14C59.5385 14 61.1538 15.5385 61.1538 17.5385C61.077 19.4615 59.5385 21.0769 57.6154 21.0769ZM57.6154 15.3077C56.3846 15.3077 55.3846 16.3077 55.3846 17.5385C55.3846 18.7692 56.3846 19.7692 57.6154 19.7692C58.8462 19.7692 59.8462 18.7692 59.8462 17.5385C59.8462 16.3077 58.8462 15.3077 57.6154 15.3077Z" fill="#17FB9B"/>
</svg>
