<svg width="18" height="24" viewBox="0 0 18 24" fill="none" xmlns="http://www.w3.org/2000/svg">
<mask id="mask0_21_2230" style="mask-type:luminance" maskUnits="userSpaceOnUse" x="0" y="3" width="18" height="18">
<path fill-rule="evenodd" clip-rule="evenodd" d="M17.7907 10.3636H9.2093V13.8409H14.1488C13.6884 16.05 11.7628 17.3182 9.2093 17.3182C6.19535 17.3182 3.76744 14.9455 3.76744 12C3.76744 9.05455 6.19535 6.68182 9.2093 6.68182C10.507 6.68182 11.6791 7.13182 12.6 7.86818L15.2791 5.25C13.6465 3.85909 11.5535 3 9.2093 3C4.10233 3 0 7.00909 0 12C0 16.9909 4.10233 21 9.2093 21C13.814 21 18 17.7273 18 12C18 11.4682 17.9163 10.8955 17.7907 10.3636Z" fill="white"/>
</mask>
<g mask="url(#mask0_21_2230)">
<path d="M-0.836914 17.3182V6.68182L6.27936 12L-0.836914 17.3182Z" fill="#FBBC05"/>
</g>
<mask id="mask1_21_2230" style="mask-type:luminance" maskUnits="userSpaceOnUse" x="0" y="3" width="18" height="18">
<path fill-rule="evenodd" clip-rule="evenodd" d="M17.7907 10.3636H9.2093V13.8409H14.1488C13.6884 16.05 11.7628 17.3182 9.2093 17.3182C6.19535 17.3182 3.76744 14.9455 3.76744 12C3.76744 9.05455 6.19535 6.68182 9.2093 6.68182C10.507 6.68182 11.6791 7.13182 12.6 7.86818L15.2791 5.25C13.6465 3.85909 11.5535 3 9.2093 3C4.10233 3 0 7.00909 0 12C0 16.9909 4.10233 21 9.2093 21C13.814 21 18 17.7273 18 12C18 11.4682 17.9163 10.8955 17.7907 10.3636Z" fill="white"/>
</mask>
<g mask="url(#mask1_21_2230)">
<path d="M-0.836914 6.68182L6.27936 12L9.2096 9.50455L19.2561 7.9091V2.18182H-0.836914V6.68182Z" fill="#EA4335"/>
</g>
<mask id="mask2_21_2230" style="mask-type:luminance" maskUnits="userSpaceOnUse" x="0" y="3" width="18" height="18">
<path fill-rule="evenodd" clip-rule="evenodd" d="M17.7907 10.3636H9.2093V13.8409H14.1488C13.6884 16.05 11.7628 17.3182 9.2093 17.3182C6.19535 17.3182 3.76744 14.9455 3.76744 12C3.76744 9.05455 6.19535 6.68182 9.2093 6.68182C10.507 6.68182 11.6791 7.13182 12.6 7.86818L15.2791 5.25C13.6465 3.85909 11.5535 3 9.2093 3C4.10233 3 0 7.00909 0 12C0 16.9909 4.10233 21 9.2093 21C13.814 21 18 17.7273 18 12C18 11.4682 17.9163 10.8955 17.7907 10.3636Z" fill="white"/>
</mask>
<g mask="url(#mask2_21_2230)">
<path d="M-0.836914 17.3182L11.7212 7.9091L15.0282 8.31819L19.2561 2.18182V21.8182H-0.836914V17.3182Z" fill="#34A853"/>
</g>
<mask id="mask3_21_2230" style="mask-type:luminance" maskUnits="userSpaceOnUse" x="0" y="3" width="18" height="18">
<path fill-rule="evenodd" clip-rule="evenodd" d="M17.7907 10.3636H9.2093V13.8409H14.1488C13.6884 16.05 11.7628 17.3182 9.2093 17.3182C6.19535 17.3182 3.76744 14.9455 3.76744 12C3.76744 9.05455 6.19535 6.68182 9.2093 6.68182C10.507 6.68182 11.6791 7.13182 12.6 7.86818L15.2791 5.25C13.6465 3.85909 11.5535 3 9.2093 3C4.10233 3 0 7.00909 0 12C0 16.9909 4.10233 21 9.2093 21C13.814 21 18 17.7273 18 12C18 11.4682 17.9163 10.8955 17.7907 10.3636Z" fill="white"/>
</mask>
<g mask="url(#mask3_21_2230)">
<path d="M19.2557 21.8182L6.27891 12L4.60449 10.7728L19.2557 6.68185V21.8182Z" fill="#4285F4"/>
</g>
</svg>
