<svg width="19" height="24" viewBox="0 0 19 24" fill="none" xmlns="http://www.w3.org/2000/svg">
<path d="M17.0002 3L10.3335 8.33333L11.5732 5.19023L17.0002 3Z" fill="#E17726" stroke="#E17726" stroke-width="0.25" stroke-linecap="round" stroke-linejoin="round"/>
<path d="M2.3335 3L9.00016 8.33333L7.80922 5.16997L2.3335 3Z" fill="#E27625" stroke="#E27625" stroke-width="0.25" stroke-linecap="round" stroke-linejoin="round"/>
<path d="M14.9361 15L13 17.8862L17.1457 19L18.3333 15.0631L14.9361 15Z" fill="#E27625" stroke="#E27625" stroke-width="0.25" stroke-linecap="round" stroke-linejoin="round"/>
<path d="M1 15.0631L2.18357 19L6.33333 17.8862L4.39918 15L1 15.0631Z" fill="#E27625" stroke="#E27625" stroke-width="0.25" stroke-linecap="round" stroke-linejoin="round"/>
<path d="M6.12279 10.5902L5 12.1642L9 12.3333L8.86668 8.33333L6.12279 10.5902Z" fill="#E27625" stroke="#E27625" stroke-width="0.25" stroke-linecap="round" stroke-linejoin="round"/>
<path d="M13.2107 10.6098L10.4247 8.33333L10.3335 12.3333L14.3335 12.1661L13.2107 10.6098Z" fill="#E27625" stroke="#E27625" stroke-width="0.25" stroke-linecap="round" stroke-linejoin="round"/>
<path d="M6.3335 17.6667L9.00016 16.5506L6.70453 15L6.3335 17.6667Z" fill="#E27625" stroke="#E27625" stroke-width="0.25" stroke-linecap="round" stroke-linejoin="round"/>
<path d="M10.3335 16.5506L13.0002 17.6667L12.6358 15L10.3335 16.5506Z" fill="#E27625" stroke="#E27625" stroke-width="0.25" stroke-linecap="round" stroke-linejoin="round"/>
<path d="M13.0002 17.7293L10.3335 16.3333L10.5505 18.2058L10.5272 19L13.0002 17.7293Z" fill="#D5BFB2" stroke="#D5BFB2" stroke-width="0.25" stroke-linecap="round" stroke-linejoin="round"/>
<path d="M6.3335 17.7293L8.80697 19L8.7915 18.2058L9.00016 16.3333L6.3335 17.7293Z" fill="#D5BFB2" stroke="#D5BFB2" stroke-width="0.25" stroke-linecap="round" stroke-linejoin="round"/>
<path d="M7.66683 13.6667L6.3335 13.0339L7.27521 12.3333L7.66683 13.6667Z" fill="#233447" stroke="#233447" stroke-width="0.25" stroke-linecap="round" stroke-linejoin="round"/>
<path d="M11.6665 13.6667L12.0568 12.3333L12.9998 13.0339L11.6665 13.6667Z" fill="#233447" stroke="#233447" stroke-width="0.25" stroke-linecap="round" stroke-linejoin="round"/>
<path d="M5.91386 17.6667L6.33317 15L3.6665 15.0583L5.91386 17.6667Z" fill="#CC6228" stroke="#CC6228" stroke-width="0.25" stroke-linecap="round" stroke-linejoin="round"/>
<path d="M13 15L13.4109 17.6667L15.6667 15.0583L13 15Z" fill="#CC6228" stroke="#CC6228" stroke-width="0.25" stroke-linecap="round" stroke-linejoin="round"/>
<path d="M14.3335 11L10.3335 11.2173L10.7054 13.6667L11.2949 12.187L12.7195 12.9645L14.3335 11Z" fill="#CC6228" stroke="#CC6228" stroke-width="0.25" stroke-linecap="round" stroke-linejoin="round"/>
<path d="M6.62105 12.9645L8.03859 12.187L8.62809 13.6667L9 11.2173L5 11L6.62105 12.9645Z" fill="#CC6228" stroke="#CC6228" stroke-width="0.25" stroke-linecap="round" stroke-linejoin="round"/>
<path d="M5 12.3333L6.33333 15L6.28867 13.6752L5 12.3333Z" fill="#E27525" stroke="#E27525" stroke-width="0.25" stroke-linecap="round" stroke-linejoin="round"/>
<path d="M13.0502 13.6752L13 15L14.3333 12.3333L13.0502 13.6752Z" fill="#E27525" stroke="#E27525" stroke-width="0.25" stroke-linecap="round" stroke-linejoin="round"/>
<path d="M9.02647 12.3333L8.93311 14.1675L9.05112 16.3333L9.07755 13.4789L9.02647 12.3333Z" fill="#E27525" stroke="#E27525" stroke-width="0.25" stroke-linecap="round" stroke-linejoin="round"/>
<path d="M10.3165 12.3333L10.2666 13.4727L10.2916 16.3333L10.411 14.1675L10.3165 12.3333Z" fill="#E27525" stroke="#E27525" stroke-width="0.25" stroke-linecap="round" stroke-linejoin="round"/>
<path d="M10.8382 14.1495L10.3335 16.1379L10.6951 16.3333L12.9324 15L13.0002 13.6667L10.8382 14.1495Z" fill="#F5841F" stroke="#F5841F" stroke-width="0.25" stroke-linecap="round" stroke-linejoin="round"/>
<path d="M6.3335 13.6667L6.39397 15L8.63754 16.3333L9.00016 16.1379L8.49403 14.1495L6.3335 13.6667Z" fill="#F5841F" stroke="#F5841F" stroke-width="0.25" stroke-linecap="round" stroke-linejoin="round"/>
<path d="M11.0071 18.4806L11.0258 17.9719L10.8634 17.8541H8.4766L8.32039 17.9719L8.3329 18.4806L6.3335 17.6667L7.03328 18.1593L8.45159 19H10.8821L12.3066 18.1593L13.0002 17.6667L11.0071 18.4806Z" fill="#C0AC9D" stroke="#C0AC9D" stroke-width="0.25" stroke-linecap="round" stroke-linejoin="round"/>
<path d="M10.1607 16.509L9.86509 16.3333H8.12838L7.8328 16.509L7.6665 17.6667L7.82048 17.553H10.173L10.3332 17.6667L10.1607 16.509Z" fill="#161616" stroke="#161616" stroke-width="0.25" stroke-linecap="round" stroke-linejoin="round"/>
<path d="M17.7181 8.33553L18.3335 5.57095L17.4068 3L10.3335 7.84141L13.0556 9.96492L16.9 11L17.7471 10.0851L17.3779 9.83804L17.9642 9.34392L17.5154 9.02337L18.1018 8.60934L17.7181 8.33553Z" fill="#763E1A" stroke="#763E1A" stroke-width="0.25" stroke-linecap="round" stroke-linejoin="round"/>
<path d="M1 5.57095L1.62263 8.33553L1.22444 8.60934L1.8181 9.02337L1.36923 9.34392L1.95566 9.83804L1.58642 10.0851L2.43349 11L6.27786 9.96492L9 7.84141L1.9267 3L1 5.57095Z" fill="#763E1A" stroke="#763E1A" stroke-width="0.25" stroke-linecap="round" stroke-linejoin="round"/>
<path d="M17.1286 10.8326L13.5347 9.66667L14.6176 11.4871L13 15L15.1388 14.9699H18.3333L17.1286 10.8326Z" fill="#F5841F" stroke="#F5841F" stroke-width="0.25" stroke-linecap="round" stroke-linejoin="round"/>
<path d="M5.79797 9.66667L2.1995 10.8326L1 14.9699H4.19188L6.33333 15L4.7137 11.4871L5.79797 9.66667Z" fill="#F5841F" stroke="#F5841F" stroke-width="0.25" stroke-linecap="round" stroke-linejoin="round"/>
<path d="M10.5703 12.1823L10.7686 8.37554L11.6665 5.66667H7.6665L8.56445 8.37554L8.7627 12.1823L8.83851 13.3776L8.84434 16.3333H10.4887L10.4945 13.3776L10.5703 12.1823Z" fill="#F5841F" stroke="#F5841F" stroke-width="0.25" stroke-linecap="round" stroke-linejoin="round"/>
</svg>
