<svg width="32" height="32" viewBox="0 0 32 32" fill="none" xmlns="http://www.w3.org/2000/svg">
<g id="Frame" clip-path="url(#clip0_476_6719)">
<rect id="Rectangle 5295" width="32" height="32" rx="16" fill="#7D7D7D" fill-opacity="0.32"/>
<path id="Vector" d="M23.8969 11.4077L20.4892 14.8154L19.0615 13.3877L20.0043 12.4448C19.1057 12.5538 18.2782 12.988 17.6779 13.6655C17.0776 14.3429 16.7462 15.2167 16.7462 16.1219C16.7462 17.027 17.0776 17.9009 17.6779 18.5783C18.2782 19.2558 19.1057 19.69 20.0043 19.799L19.3052 19.1013L20.7343 17.6735L23.8982 20.8361L20.7343 24L19.3066 22.5709L20.0447 21.8328C19.1403 21.7691 18.2639 21.4913 17.4879 21.0225C16.7118 20.5537 16.0583 19.9072 15.581 19.1363C15.068 19.9652 14.3516 20.6493 13.5 21.1236C12.6483 21.5979 11.6895 21.8467 10.7146 21.8463H9V19.8259H10.7146C11.697 19.8259 12.6391 19.4357 13.3338 18.741C14.0284 18.0464 14.4186 17.1043 14.4186 16.1219C14.4186 15.1395 14.0284 14.1974 13.3338 13.5028C12.6391 12.8081 11.697 12.4179 10.7146 12.4179H9V10.3975H10.7146C12.77 10.3975 14.5722 11.4804 15.581 13.1075C16.0582 12.3365 16.7117 11.69 17.4878 11.2211C18.2639 10.7523 19.1402 10.4746 20.0447 10.411L19.0615 9.42773L20.4892 8L23.8969 11.4077Z" fill="white"/>
</g>
<defs>
<clipPath id="clip0_476_6719">
<rect width="32" height="32" fill="white"/>
</clipPath>
</defs>
</svg>
