<svg width="24" height="24" viewBox="0 0 24 24" fill="none" xmlns="http://www.w3.org/2000/svg">
<g id="Frame" clip-path="url(#clip0_710_7375)">
<g id="Group 1321315567">
<rect id="Rectangle 5295" width="24" height="24" rx="12" fill="#FC72FF"/>
<path id="Vector" d="M19.8969 7.40769L16.4892 10.8154L15.0615 9.38766L16.0043 8.44482C15.1057 8.55378 14.2782 8.988 13.6779 9.66547C13.0776 10.3429 12.7462 11.2167 12.7462 12.1219C12.7462 13.027 13.0776 13.9009 13.6779 14.5783C14.2782 15.2558 15.1057 15.69 16.0043 15.799L15.3052 15.1013L16.7343 13.6735L19.8982 16.8361L16.7343 20L15.3066 18.5709L16.0447 17.8328C15.1403 17.7691 14.2639 17.4913 13.4879 17.0225C12.7118 16.5537 12.0583 15.9072 11.581 15.1363C11.068 15.9652 10.3516 16.6493 9.49995 17.1236C8.64825 17.5979 7.68948 17.8467 6.71462 17.8463H5V15.8259H6.71462C7.69699 15.8259 8.63912 15.4357 9.33376 14.741C10.0284 14.0464 10.4186 13.1043 10.4186 12.1219C10.4186 11.1395 10.0284 10.1974 9.33376 9.50276C8.63912 8.80812 7.69699 8.41788 6.71462 8.41788H5V6.39751H6.71462C8.77001 6.39751 10.5722 7.48043 11.581 9.1075C12.0582 8.33651 12.7117 7.68996 13.4878 7.22113C14.2639 6.7523 15.1402 6.47462 16.0447 6.41098L15.0615 5.42773L16.4892 4L19.8969 7.40769Z" fill="white"/>
</g>
</g>
<defs>
<clipPath id="clip0_710_7375">
<rect width="24" height="24" fill="white"/>
</clipPath>
</defs>
</svg>
