<svg width="128" height="128" viewBox="0 0 128 128" fill="none" xmlns="http://www.w3.org/2000/svg">
<path d="M12.7969 79.3369H14.5202C14.7435 79.3414 14.9562 79.4333 15.1125 79.5928C15.2688 79.7523 15.3563 79.9667 15.3563 80.1901C15.3563 80.661 14.9895 81.0432 14.5202 81.0432H12.7969V82.7665C12.7925 82.9898 12.7006 83.2024 12.5411 83.3588C12.3816 83.5151 12.1671 83.6026 11.9438 83.6026C11.8327 83.6044 11.7223 83.5841 11.6191 83.543C11.5159 83.5018 11.4219 83.4405 11.3426 83.3628C11.2632 83.285 11.2001 83.1923 11.1568 83.0899C11.1136 82.9875 11.0911 82.8776 11.0907 82.7665V81.0432H9.36734C9.14405 81.0387 8.93141 80.9469 8.77509 80.7874C8.61877 80.6279 8.53123 80.4134 8.53128 80.1901C8.53128 79.7191 8.89812 79.3369 9.36734 79.3369H11.0907V77.6136C11.0951 77.3903 11.187 77.1777 11.3465 77.0214C11.506 76.865 11.7205 76.7775 11.9438 76.7776C12.4147 76.7776 12.7969 77.1444 12.7969 77.6136V79.3369ZM125.41 72.5119V70.7886C125.409 70.6775 125.387 70.5676 125.344 70.4652C125.3 70.3629 125.237 70.2701 125.158 70.1923C125.079 70.1146 124.985 70.0533 124.881 70.0122C124.778 69.971 124.668 69.9507 124.557 69.9525C124.333 69.9525 124.119 70.04 123.959 70.1963C123.8 70.3527 123.708 70.5653 123.704 70.7886V72.5119H121.98C121.869 72.5124 121.759 72.5348 121.657 72.5781C121.554 72.6213 121.462 72.6844 121.384 72.7638C121.306 72.8432 121.245 72.9372 121.204 73.0404C121.163 73.1436 121.142 73.2539 121.144 73.365C121.144 73.8223 121.52 74.2182 121.98 74.2182H123.704V75.9415C123.704 76.4107 124.086 76.7776 124.557 76.7776C124.78 76.7776 124.994 76.6901 125.154 76.5337C125.313 76.3774 125.405 76.1648 125.41 75.9415V74.2182H127.133C127.602 74.2182 127.969 73.836 127.969 73.365C127.969 73.1417 127.882 72.9273 127.725 72.7677C127.569 72.6082 127.356 72.5164 127.133 72.5119H125.41ZM63.4249 100.665H20.47C20.2461 100.665 20.0243 100.621 19.8175 100.536C19.6107 100.45 19.4228 100.324 19.2647 100.166C19.1067 100.007 18.9815 99.8188 18.8964 99.6117C18.8113 99.4046 18.7679 99.1828 18.7688 98.9589C18.7688 98.017 19.5417 97.2526 20.47 97.2526H28.2078C27.6106 96.2178 27.2975 95.0435 27.3001 93.8486V44.3502C27.3005 43.4538 27.4777 42.5664 27.8213 41.7386C28.165 40.9108 28.6685 40.1588 29.303 39.5257C29.9375 38.8927 30.6906 38.3909 31.5192 38.049C32.3478 37.7072 33.2356 37.5321 34.1319 37.5337H39.2439V35.8189C39.2443 34.9226 39.4215 34.0351 39.7651 33.2073C40.1088 32.3795 40.6123 31.6275 41.2468 30.9945C41.8813 30.3614 42.6344 29.8596 43.463 29.5178C44.2916 29.176 45.1794 29.0008 46.0757 29.0024H87.0122C87.9087 29.0004 88.7967 29.1752 89.6255 29.5169C90.4543 29.8585 91.2075 30.3603 91.8421 30.9935C92.4767 31.6266 92.9802 32.3788 93.3237 33.2068C93.6672 34.0348 93.8441 34.9224 93.8441 35.8189V85.3174C93.8441 86.5578 93.5131 87.7198 92.9346 88.7213H102.374C103.317 88.7213 104.082 89.4789 104.082 90.4276C104.082 91.3695 103.322 92.1339 102.375 92.1339H81.9003V93.8486C81.9003 95.0891 81.5693 96.2511 80.9908 97.2526H81.9054C82.8438 97.2526 83.6065 98.0102 83.6065 98.9589C83.6065 99.9007 82.8336 100.665 81.9054 100.665H72.9288C73.7085 101.972 73.5396 103.685 72.405 104.82C72.0887 105.138 71.7127 105.39 71.2987 105.562C70.8846 105.734 70.4407 105.823 69.9923 105.823C69.544 105.823 69.1 105.734 68.686 105.562C68.2719 105.39 67.896 105.138 67.5797 104.82L63.4249 100.665ZM69.663 97.2526H75.0889C76.9658 97.2526 78.4878 95.7341 78.4878 93.8316V44.27C78.4878 42.4272 77.0136 40.9462 75.1947 40.9462H34.0057C32.1868 40.9462 30.7126 42.434 30.7126 44.27V93.8316C30.7126 95.7204 32.2482 97.2526 34.1098 97.2526H60.0107L59.1337 96.3739C58.7085 95.951 58.4025 95.4232 58.2467 94.8441C58.0909 94.2649 58.0908 93.6549 58.2465 93.0757L56.6357 91.4633C54.2164 93.2642 51.2055 94.0835 48.2072 93.7567C45.209 93.4299 42.4453 91.9811 40.4708 89.7013C38.4963 87.4214 37.4571 84.4791 37.5618 81.4649C37.6666 78.4507 38.9075 75.5877 41.0354 73.4504C43.1695 71.3087 46.0363 70.0561 49.0576 69.9451C52.0789 69.8341 55.0299 70.873 57.3153 72.8523C59.6007 74.8316 61.0504 77.604 61.372 80.6101C61.6937 83.6163 60.8633 86.6327 59.0484 89.0507L60.6608 90.6631C61.2398 90.5067 61.8499 90.5063 62.4291 90.6618C63.0084 90.8173 63.5362 91.1233 63.959 91.5486L69.663 97.2526ZM81.9003 88.7213H87.0344C87.9367 88.7168 88.8004 88.3554 89.437 87.7159C90.0735 87.0765 90.4311 86.2111 90.4316 85.3088V35.8274C90.4316 33.9369 88.9096 32.4149 87.0344 32.4149H46.0518C45.1499 32.4199 44.2865 32.7815 43.6504 33.4209C43.0142 34.0603 42.6568 34.9254 42.6564 35.8274V37.5337H75.0684C75.9649 37.5317 76.8529 37.7065 77.6817 38.0481C78.5105 38.3898 79.2637 38.8916 79.8983 39.5247C80.5329 40.1579 81.0364 40.91 81.3799 41.7381C81.7235 42.5661 81.9003 43.4537 81.9003 44.3502V88.7213ZM21.7548 26.0164H24.2971C25.0137 26.0164 25.5938 26.5846 25.5938 27.2961C25.5938 28.0025 25.0137 28.5758 24.2971 28.5758H21.7548V31.1181C21.7548 31.8348 21.1866 32.4149 20.4751 32.4149C20.3059 32.4138 20.1386 32.3794 19.9827 32.3136C19.8269 32.2478 19.6855 32.152 19.5666 32.0316C19.4478 31.9112 19.3539 31.7685 19.2902 31.6118C19.2265 31.4551 19.1943 31.2873 19.1954 31.1181V28.5758H16.6531C16.4838 28.5774 16.3158 28.5455 16.1589 28.482C16.002 28.4184 15.8591 28.3245 15.7386 28.2056C15.6181 28.0866 15.5223 27.9451 15.4567 27.789C15.3911 27.6329 15.357 27.4654 15.3563 27.2961C15.3563 26.5897 15.9364 26.0164 16.6531 26.0164H19.1954V23.4741C19.1954 22.7575 19.7636 22.1774 20.4751 22.1774C21.1815 22.1774 21.7548 22.7575 21.7548 23.4741V26.0164ZM1.70626 98.9589C1.70626 98.017 2.47919 97.2526 3.40739 97.2526H13.6552C14.5936 97.2526 15.3563 98.0102 15.3563 98.9589C15.3563 99.9007 14.5834 100.665 13.6552 100.665H3.40739C3.1835 100.665 2.96177 100.621 2.75494 100.536C2.54812 100.45 2.36027 100.324 2.20219 100.166C2.04411 100.007 1.91892 99.8188 1.83382 99.6117C1.74871 99.4046 1.70536 99.1828 1.70626 98.9589ZM55.5147 87.9296C56.307 87.1373 56.9355 86.1967 57.3643 85.1615C57.7931 84.1263 58.0138 83.0168 58.0138 81.8963C58.0138 80.7758 57.7931 79.6663 57.3643 78.6311C56.9355 77.5959 56.307 76.6553 55.5147 75.863C54.7224 75.0707 53.7818 74.4422 52.7466 74.0134C51.7114 73.5846 50.6019 73.3639 49.4814 73.3639C48.3609 73.3639 47.2514 73.5846 46.2162 74.0134C45.181 74.4422 44.2404 75.0707 43.4481 75.863C41.848 77.4631 40.949 79.6334 40.949 81.8963C40.949 84.1593 41.848 86.3295 43.4481 87.9296C45.0482 89.5298 47.2185 90.4287 49.4814 90.4287C51.7444 90.4287 53.9146 89.5298 55.5147 87.9296ZM37.5376 47.7712C37.5376 47.319 37.7172 46.8852 38.0368 46.5653C38.3564 46.2454 38.7899 46.0654 39.2422 46.0649H58.0127C58.4652 46.0649 58.8992 46.2447 59.2192 46.5647C59.5392 46.8847 59.719 47.3187 59.719 47.7712C59.719 48.2237 59.5392 48.6577 59.2192 48.9777C58.8992 49.2977 58.4652 49.4775 58.0127 49.4775H39.2439C39.0196 49.4781 38.7974 49.4345 38.5901 49.349C38.3828 49.2634 38.1944 49.1378 38.0359 48.9792C37.8773 48.8206 37.7516 48.6323 37.6661 48.425C37.5806 48.2176 37.537 47.9955 37.5376 47.7712ZM37.5376 56.3025C37.5376 55.3606 38.2969 54.5962 39.2319 54.5962H66.5559C67.4909 54.5962 68.2502 55.3538 68.2502 56.3025C68.2502 57.2443 67.4909 58.0087 66.5559 58.0087H39.2319C39.0085 58.0085 38.7873 57.9641 38.5811 57.8782C38.3748 57.7922 38.1876 57.6663 38.0301 57.5078C37.8727 57.3492 37.7481 57.1611 37.6636 56.9543C37.5791 56.7474 37.5363 56.5259 37.5376 56.3025ZM37.5376 64.8338C37.5376 63.8919 38.2986 63.1275 39.2405 63.1275H51.1911C52.1312 63.1275 52.8939 63.8851 52.8939 64.8338C52.8939 65.7756 52.1329 66.54 51.1911 66.54H39.2405C39.0164 66.5405 38.7945 66.4966 38.5875 66.411C38.3805 66.3254 38.1924 66.1996 38.0342 66.0411C37.8759 65.8825 37.7506 65.6942 37.6653 65.487C37.5801 65.2798 37.5367 65.0578 37.5376 64.8338ZM5.11877 54.5962C4.44656 54.5962 3.78094 54.4638 3.1599 54.2066C2.53886 53.9493 1.97457 53.5723 1.49925 53.097C1.02393 52.6217 0.646885 52.0574 0.389643 51.4363C0.132401 50.8153 0 50.1497 0 49.4775C0 48.8053 0.132401 48.1396 0.389643 47.5186C0.646885 46.8976 1.02393 46.3333 1.49925 45.8579C1.97457 45.3826 2.53886 45.0056 3.1599 44.7483C3.78094 44.4911 4.44656 44.3587 5.11877 44.3587C6.47635 44.3587 7.77833 44.898 8.73828 45.8579C9.69824 46.8179 10.2375 48.1199 10.2375 49.4775C10.2375 50.835 9.69824 52.137 8.73828 53.097C7.77833 54.0569 6.47635 54.5962 5.11877 54.5962ZM5.11877 52.0368C5.45491 52.0369 5.78777 51.9707 6.09834 51.8422C6.40891 51.7136 6.69111 51.525 6.92882 51.2874C7.16653 51.0497 7.35509 50.7675 7.48374 50.457C7.61239 50.1465 7.67861 49.8136 7.67861 49.4775C7.67861 49.1413 7.61239 48.8085 7.48374 48.4979C7.35509 48.1874 7.16653 47.9052 6.92882 47.6675C6.69111 47.4299 6.40891 47.2414 6.09834 47.1128C5.78777 46.9842 5.45491 46.918 5.11877 46.9181C4.44006 46.9182 3.78918 47.1879 3.30931 47.6679C2.82943 48.1478 2.55984 48.7987 2.55984 49.4775C2.55984 50.1562 2.82943 50.8071 3.30931 51.2871C3.78918 51.767 4.44006 52.0367 5.11877 52.0368ZM110.907 44.3587C109.549 44.3587 108.247 43.8194 107.287 42.8594C106.327 41.8995 105.788 40.5975 105.788 39.2399C105.788 37.8823 106.327 36.5804 107.287 35.6204C108.247 34.6605 109.549 34.1212 110.907 34.1212C112.264 34.1212 113.566 34.6605 114.526 35.6204C115.486 36.5804 116.025 37.8823 116.025 39.2399C116.025 40.5975 115.486 41.8995 114.526 42.8594C113.566 43.8194 112.264 44.3587 110.907 44.3587ZM110.907 41.7993C111.243 41.7994 111.576 41.7332 111.886 41.6046C112.197 41.476 112.479 41.2875 112.717 41.0498C112.954 40.8122 113.143 40.53 113.272 40.2195C113.4 39.9089 113.466 39.5761 113.466 39.2399C113.466 38.9038 113.4 38.5709 113.272 38.2604C113.143 37.9498 112.954 37.6677 112.717 37.43C112.479 37.1923 112.197 37.0038 111.886 36.8752C111.576 36.7466 111.243 36.6805 110.907 36.6805C110.228 36.6807 109.577 36.9504 109.097 37.4303C108.617 37.9103 108.348 38.5612 108.348 39.2399C108.348 39.9186 108.617 40.5696 109.097 41.0495C109.577 41.5295 110.228 41.7992 110.907 41.7993Z" fill="#7D7D7D"/>
</svg>
