<svg width="128" height="128" viewBox="0 0 128 128" fill="none" xmlns="http://www.w3.org/2000/svg">
<path fill-rule="evenodd" clip-rule="evenodd" d="M63.4249 100.665H20.47C20.2461 100.665 20.0243 100.621 19.8175 100.536C19.6107 100.45 19.4228 100.324 19.2647 100.166C19.1067 100.007 18.9815 99.8188 18.8964 99.6117C18.8113 99.4046 18.7679 99.1828 18.7688 98.9589C18.7688 98.017 19.5417 97.2526 20.47 97.2526H28.2078C27.6106 96.2178 27.2975 95.0435 27.3001 93.8486V44.3502C27.3005 43.4538 27.4777 42.5664 27.8213 41.7386C28.165 40.9108 28.6685 40.1588 29.303 39.5257C29.9375 38.8927 30.6906 38.3909 31.5192 38.049C32.3478 37.7072 33.2356 37.5321 34.1319 37.5337H39.2439V35.8189C39.2443 34.9226 39.4215 34.0351 39.7651 33.2073C40.1088 32.3795 40.6123 31.6275 41.2468 30.9945C41.8813 30.3614 42.6344 29.8596 43.463 29.5178C44.2916 29.176 45.1794 29.0008 46.0757 29.0024H87.0122C87.9087 29.0004 88.7967 29.1752 89.6255 29.5169C90.4543 29.8585 91.2075 30.3603 91.8421 30.9935C92.4767 31.6266 92.9802 32.3788 93.3237 33.2068C93.6672 34.0348 93.8441 34.9224 93.8441 35.8189V85.3174C93.8441 86.5578 93.5131 87.7198 92.9346 88.7213H102.374C103.317 88.7213 104.082 89.4789 104.082 90.4276C104.082 91.3695 103.322 92.1339 102.375 92.1339H81.9003V93.8486C81.9003 95.0891 81.5693 96.2511 80.9908 97.2526H81.9054C82.8438 97.2526 83.6065 98.0102 83.6065 98.9589C83.6065 99.9007 82.8336 100.665 81.9054 100.665H72.9288H63.4249ZM75.0889 97.2526H69.663H60.0107H34.1098C32.2482 97.2526 30.7126 95.7204 30.7126 93.8316V44.27C30.7126 42.434 32.1868 40.9462 34.0057 40.9462H75.1947C77.0136 40.9462 78.4878 42.4272 78.4878 44.27V93.8316C78.4878 95.734 76.9658 97.2526 75.0889 97.2526ZM87.0344 88.7213H81.9003V44.3502C81.9003 43.4537 81.7235 42.5661 81.3799 41.7381C81.0364 40.91 80.5329 40.1579 79.8983 39.5247C79.2637 38.8916 78.5105 38.3898 77.6817 38.0481C76.8529 37.7065 75.9649 37.5317 75.0684 37.5337H42.6564V35.8274C42.6568 34.9254 43.0142 34.0603 43.6504 33.4209C44.2865 32.7815 45.1499 32.4199 46.0518 32.4149H87.0344C88.9096 32.4149 90.4316 33.9369 90.4316 35.8274V85.3088C90.4311 86.2111 90.0735 87.0765 89.437 87.7159C88.8004 88.3554 87.9367 88.7168 87.0344 88.7213Z" fill="#7D7D7D"/>
<path d="M37.5376 47.7712C37.5376 47.319 37.7172 46.8852 38.0368 46.5653C38.3564 46.2454 38.7899 46.0654 39.2422 46.0649H58.0127C58.4652 46.0649 58.8992 46.2447 59.2192 46.5647C59.5392 46.8847 59.719 47.3187 59.719 47.7712C59.719 48.2237 59.5392 48.6577 59.2192 48.9777C58.8992 49.2977 58.4652 49.4775 58.0127 49.4775H39.2439C39.0196 49.4781 38.7974 49.4345 38.5901 49.349C38.3828 49.2634 38.1944 49.1378 38.0359 48.9792C37.8773 48.8206 37.7516 48.6323 37.6661 48.425C37.5806 48.2176 37.537 47.9955 37.5376 47.7712Z" fill="#7D7D7D"/>
<path d="M37.5376 56.3025C37.5376 55.3606 38.2969 54.5962 39.2319 54.5962H66.5559C67.4909 54.5962 68.2502 55.3538 68.2502 56.3025C68.2502 57.2443 67.4909 58.0087 66.5559 58.0087H39.2319C39.0085 58.0085 38.7873 57.9641 38.5811 57.8782C38.3748 57.7922 38.1876 57.6663 38.0301 57.5078C37.8727 57.3492 37.7481 57.1611 37.6636 56.9543C37.5791 56.7474 37.5363 56.5259 37.5376 56.3025Z" fill="#7D7D7D"/>
<path d="M37.5376 64.8338C37.5376 63.8919 38.2986 63.1275 39.2405 63.1275H51.1911C52.1312 63.1275 52.8939 63.8851 52.8939 64.8338C52.8939 65.7756 52.1329 66.54 51.1911 66.54H39.2405C39.0164 66.5405 38.7945 66.4966 38.5875 66.411C38.3805 66.3254 38.1924 66.1996 38.0342 66.0411C37.8759 65.8825 37.7506 65.6942 37.6653 65.487C37.5801 65.2798 37.5367 65.0578 37.5376 64.8338Z" fill="#7D7D7D"/>
<path fill-rule="evenodd" clip-rule="evenodd" d="M14.5202 79.3369H12.7969V77.6136C12.7969 77.1444 12.4147 76.7776 11.9438 76.7776C11.7205 76.7775 11.506 76.865 11.3465 77.0214C11.187 77.1777 11.0951 77.3903 11.0907 77.6136V79.3369H9.36734C8.89812 79.3369 8.53128 79.7191 8.53128 80.1901C8.53123 80.4134 8.61877 80.6279 8.77509 80.7874C8.93141 80.9469 9.14405 81.0387 9.36734 81.0432H11.0907V82.7665C11.0911 82.8776 11.1136 82.9875 11.1568 83.0899C11.2001 83.1923 11.2632 83.285 11.3426 83.3628C11.4219 83.4405 11.5159 83.5018 11.6191 83.543C11.7223 83.5841 11.8327 83.6044 11.9438 83.6026C12.1671 83.6026 12.3816 83.5151 12.5411 83.3588C12.7006 83.2024 12.7925 82.9898 12.7969 82.7665V81.0432H14.5202C14.9895 81.0432 15.3563 80.661 15.3563 80.1901C15.3563 79.9667 15.2688 79.7523 15.1125 79.5928C14.9562 79.4333 14.7435 79.3414 14.5202 79.3369ZM125.41 70.7886V72.5119H127.133C127.356 72.5164 127.569 72.6082 127.725 72.7677C127.882 72.9273 127.969 73.1417 127.969 73.365C127.969 73.836 127.602 74.2182 127.133 74.2182H125.41V75.9415C125.405 76.1648 125.313 76.3774 125.154 76.5337C124.994 76.6901 124.78 76.7776 124.557 76.7776C124.086 76.7776 123.704 76.4107 123.704 75.9415V74.2182H121.98C121.52 74.2182 121.144 73.8223 121.144 73.365C121.142 73.2539 121.163 73.1436 121.204 73.0404C121.245 72.9372 121.306 72.8432 121.384 72.7638C121.462 72.6845 121.554 72.6213 121.657 72.5781C121.759 72.5348 121.869 72.5124 121.98 72.5119H123.704V70.7886C123.708 70.5653 123.8 70.3527 123.959 70.1963C124.119 70.04 124.333 69.9525 124.557 69.9525C124.668 69.9507 124.778 69.971 124.881 70.0122C124.985 70.0533 125.079 70.1146 125.158 70.1923C125.237 70.2701 125.3 70.3629 125.344 70.4652C125.387 70.5676 125.409 70.6775 125.41 70.7886ZM24.2971 26.0164H21.7548V23.4741C21.7548 22.7575 21.1815 22.1774 20.4751 22.1774C19.7636 22.1774 19.1954 22.7575 19.1954 23.4741V26.0164H16.6531C15.9364 26.0164 15.3563 26.5897 15.3563 27.2961C15.357 27.4654 15.3911 27.6329 15.4567 27.789C15.5223 27.9451 15.6181 28.0866 15.7386 28.2056C15.8591 28.3245 16.002 28.4184 16.1589 28.482C16.3158 28.5455 16.4838 28.5774 16.6531 28.5758H19.1954V31.1181C19.1943 31.2873 19.2265 31.4551 19.2902 31.6118C19.3539 31.7685 19.4478 31.9112 19.5666 32.0316C19.6855 32.152 19.8269 32.2478 19.9827 32.3136C20.1386 32.3794 20.3059 32.4138 20.4751 32.4149C21.1866 32.4149 21.7548 31.8348 21.7548 31.1181V28.5758H24.2971C25.0137 28.5758 25.5938 28.0025 25.5938 27.2961C25.5938 26.5846 25.0137 26.0164 24.2971 26.0164ZM3.40739 97.2526C2.47919 97.2526 1.70626 98.017 1.70626 98.9589C1.70536 99.1828 1.74871 99.4046 1.83382 99.6117C1.91892 99.8188 2.04411 100.007 2.20219 100.166C2.36027 100.324 2.54812 100.45 2.75494 100.536C2.96177 100.621 3.1835 100.665 3.40739 100.665H13.6552C14.5834 100.665 15.3563 99.9007 15.3563 98.9589C15.3563 98.0102 14.5936 97.2526 13.6552 97.2526H3.40739ZM3.1599 54.2066C3.78094 54.4638 4.44656 54.5962 5.11877 54.5962C6.47635 54.5962 7.77833 54.0569 8.73828 53.097C9.69824 52.137 10.2375 50.835 10.2375 49.4775C10.2375 48.1199 9.69824 46.8179 8.73828 45.8579C7.77833 44.898 6.47635 44.3587 5.11877 44.3587C4.44656 44.3587 3.78094 44.4911 3.1599 44.7483C2.53886 45.0056 1.97457 45.3826 1.49925 45.8579C1.02393 46.3333 0.646885 46.8976 0.389643 47.5186C0.132401 48.1396 0 48.8053 0 49.4775C0 50.1497 0.132401 50.8153 0.389643 51.4363C0.646885 52.0574 1.02393 52.6217 1.49925 53.097C1.97457 53.5723 2.53886 53.9493 3.1599 54.2066ZM6.09834 51.8422C5.78777 51.9707 5.45491 52.0369 5.11877 52.0368C4.44006 52.0367 3.78918 51.767 3.30931 51.2871C2.82943 50.8071 2.55984 50.1562 2.55984 49.4775C2.55984 48.7987 2.82943 48.1478 3.30931 47.6679C3.78918 47.1879 4.44006 46.9182 5.11877 46.9181C5.45491 46.918 5.78777 46.9842 6.09834 47.1128C6.40891 47.2414 6.69111 47.4299 6.92882 47.6675C7.16653 47.9052 7.35509 48.1874 7.48374 48.4979C7.61239 48.8085 7.67861 49.1413 7.67861 49.4775C7.67861 49.8136 7.61239 50.1465 7.48374 50.457C7.35509 50.7675 7.16653 51.0497 6.92882 51.2874C6.69111 51.525 6.40891 51.7136 6.09834 51.8422ZM107.287 42.8594C108.247 43.8194 109.549 44.3587 110.907 44.3587C112.264 44.3587 113.566 43.8194 114.526 42.8594C115.486 41.8995 116.025 40.5975 116.025 39.2399C116.025 37.8823 115.486 36.5804 114.526 35.6204C113.566 34.6605 112.264 34.1212 110.907 34.1212C109.549 34.1212 108.247 34.6605 107.287 35.6204C106.327 36.5804 105.788 37.8823 105.788 39.2399C105.788 40.5975 106.327 41.8995 107.287 42.8594ZM111.886 41.6046C111.576 41.7332 111.243 41.7994 110.907 41.7993C110.228 41.7992 109.577 41.5295 109.097 41.0495C108.617 40.5696 108.348 39.9186 108.348 39.2399C108.348 38.5612 108.617 37.9103 109.097 37.4303C109.577 36.9504 110.228 36.6807 110.907 36.6805C111.243 36.6805 111.576 36.7466 111.886 36.8752C112.197 37.0038 112.479 37.1923 112.717 37.43C112.954 37.6677 113.143 37.9498 113.272 38.2604C113.4 38.5709 113.466 38.9038 113.466 39.2399C113.466 39.5761 113.4 39.9089 113.272 40.2195C113.143 40.53 112.954 40.8122 112.717 41.0498C112.479 41.2875 112.197 41.476 111.886 41.6046Z" fill="#7D7D7D"/>
<path d="M62 92C59.6266 92 57.3066 91.2962 55.3332 89.9776C53.3598 88.6591 51.8217 86.7849 50.9135 84.5922C50.0052 82.3995 49.7676 79.9867 50.2306 77.6589C50.6936 75.3312 51.8365 73.193 53.5147 71.5147C55.193 69.8365 57.3312 68.6936 59.6589 68.2306C61.9867 67.7676 64.3995 68.0052 66.5922 68.9135C68.7849 69.8217 70.6591 71.3598 71.9776 73.3332C73.2962 75.3066 74 77.6266 74 80C74 83.1826 72.7357 86.2349 70.4853 88.4853C68.2349 90.7357 65.1826 92 62 92ZM62 90.1844C64.0143 90.1844 65.9833 89.5871 67.6582 88.468C69.333 87.3489 70.6383 85.7584 71.4092 83.8974C72.18 82.0365 72.3817 79.9887 71.9887 78.0131C71.5957 76.0375 70.6258 74.2229 69.2015 72.7985C67.7771 71.3742 65.9625 70.4043 63.9869 70.0113C62.0113 69.6183 59.9636 69.82 58.1026 70.5908C56.2416 71.3617 54.6511 72.667 53.532 74.3419C52.4129 76.0167 51.8156 77.9857 51.8156 80C51.8154 81.3375 52.0788 82.6619 52.5905 83.8976C53.1023 85.1333 53.8525 86.2561 54.7982 87.2018C55.7439 88.1476 56.8667 88.8977 58.1024 89.4095C59.3381 89.9212 60.6625 90.1846 62 90.1844ZM61.9916 72.9404H62.0084C62.2735 72.9404 62.5278 73.0457 62.7152 73.2332C62.9027 73.4206 63.008 73.6749 63.008 73.94V82.0244C63.008 82.2895 62.9027 82.5438 62.7152 82.7312C62.5278 82.9187 62.2735 83.024 62.0084 83.024H61.9916C61.7265 83.024 61.4722 82.9187 61.2848 82.7312C61.0973 82.5438 60.992 82.2895 60.992 82.0244V73.9412C60.9923 73.6761 61.0977 73.4219 61.2851 73.2343C61.4724 73.0467 61.7265 72.941 61.9916 72.9404ZM62 87.0596C61.8006 87.0596 61.6058 87.0005 61.44 86.8897C61.2742 86.779 61.145 86.6215 61.0687 86.4374C60.9924 86.2532 60.9725 86.0505 61.0114 85.855C61.0503 85.6594 61.1463 85.4798 61.2872 85.3388C61.4282 85.1979 61.6078 85.1019 61.8034 85.063C61.9989 85.0241 62.2016 85.044 62.3858 85.1203C62.5699 85.1966 62.7274 85.3258 62.8381 85.4916C62.9489 85.6574 63.008 85.8522 63.008 86.0516C63.008 86.3189 62.9018 86.5753 62.7128 86.7644C62.5237 86.9534 62.2673 87.0596 62 87.0596Z" fill="#7D7D7D" stroke="#7D7D7D" stroke-width="0.8"/>
</svg>
