<svg width="12" height="12" viewBox="0 0 12 12" fill="none" xmlns="http://www.w3.org/2000/svg">
<g clip-path="url(#clip0_63_24286)">
<path d="M5.99998 0C4.40869 0 2.88257 0.632139 1.75735 1.75735C0.632139 2.88257 0 4.40869 0 5.99998C0 7.59127 0.632139 9.11739 1.75735 10.2426C2.88257 11.3678 4.40869 12 5.99998 12C7.59127 12 9.11739 11.3678 10.2426 10.2426C11.3678 9.11739 12 7.59127 12 5.99998C12 4.40869 11.3678 2.88257 10.2426 1.75735C9.11739 0.632139 7.59127 0 5.99998 0ZM5.99998 1.6288C7.15929 1.6288 8.27111 2.08934 9.09087 2.90909C9.91062 3.72885 10.3712 4.84067 10.3712 5.99998C10.3712 7.15929 9.91062 8.27111 9.09087 9.09087C8.27111 9.91062 7.15929 10.3712 5.99998 10.3712C4.84067 10.3712 3.72885 9.91062 2.90909 9.09087C2.08934 8.27111 1.6288 7.15929 1.6288 5.99998C1.6288 4.84067 2.08934 3.72885 2.90909 2.90909C3.72885 2.08934 4.84067 1.6288 5.99998 1.6288Z" fill="#F2CAB3" fill-opacity="0.32"/>
<path d="M6.00001 0V1.6288C5.26502 1.6288 4.54188 1.81413 3.89749 2.16766C3.2531 2.52119 2.70826 3.0315 2.31336 3.6514C1.91845 4.2713 1.68623 4.98076 1.63818 5.71419C1.59012 6.44762 1.72778 7.18132 2.03843 7.84744C2.34907 8.51357 2.82267 9.09061 3.41542 9.52519C4.00818 9.95978 4.70094 10.2379 5.42966 10.3338C6.15837 10.4297 6.89951 10.3403 7.58451 10.0739C8.26952 9.80743 8.87629 9.37257 9.3487 8.8095L9.45906 8.67321L10.7468 9.67044C10.1281 10.4706 9.31705 11.1013 8.38919 11.504C7.46132 11.9067 6.44671 12.0683 5.43966 11.9737C4.43261 11.8792 3.4658 11.5316 2.6291 10.9632C1.79239 10.3949 1.11295 9.62425 0.653924 8.72292C0.194895 7.8216 -0.0288223 6.81886 0.00356543 5.8079C0.0359531 4.79694 0.323395 3.81057 0.839174 2.94048C1.35495 2.07038 2.08233 1.3448 2.95369 0.831177C3.82506 0.31755 4.81213 0.0325479 5.82317 0.00265925L6.00001 0Z" fill="#EE9226"/>
</g>
<defs>
<clipPath id="clip0_63_24286">
<rect width="12" height="12" fill="white"/>
</clipPath>
</defs>
</svg>
