<svg width="14" height="14" viewBox="0 0 14 14" fill="none" xmlns="http://www.w3.org/2000/svg">
<g clip-path="url(#clip0_2559_6527)">
<path d="M7 0C3.14961 0 0 3.14961 0 7C0 10.8504 3.14961 14 7 14C10.8504 14 14 10.8504 14 7C14 3.14961 10.8504 0 7 0ZM10.3447 9.41137C10.5788 9.64548 10.5788 10.0731 10.3447 10.3057C10.2276 10.4227 10.0731 10.5008 9.87804 10.5008C9.72196 10.5008 9.52843 10.4227 9.41137 10.3057L7.15608 8.05039L4.90078 10.3057C4.66667 10.5398 4.23902 10.5398 4.00647 10.3057C3.77391 10.0716 3.77235 9.64392 4.00647 9.41137L6.26176 7.15608L4.00647 4.90078C3.88941 4.78372 3.81137 4.62921 3.81137 4.43411C3.81137 4.27804 3.88941 4.0845 4.00647 3.96745C4.24058 3.73333 4.66823 3.73333 4.90078 3.96745L7.15608 6.22274L9.41137 3.96745C9.52843 3.85039 9.68294 3.77235 9.87804 3.77235C10.0341 3.77235 10.2276 3.85039 10.3447 3.96745C10.4618 4.0845 10.5398 4.23902 10.5398 4.43411C10.5398 4.59019 10.4618 4.78372 10.3447 4.90078L8.08941 7.15608L10.3447 9.41137Z" fill="#FA4343"/>
</g>
<defs>
<clipPath id="clip0_2559_6527">
<rect width="14" height="14" fill="white"/>
</clipPath>
</defs>
</svg>
