<svg width="12" height="12" viewBox="0 0 12 12" fill="none" xmlns="http://www.w3.org/2000/svg">
<g clip-path="url(#clip0_63_24330)">
<path d="M6 0C2.69967 0 0 2.69967 0 6C0 9.30033 2.69967 12 6 12C9.30033 12 12 9.30033 12 6C12 2.69967 9.30033 0 6 0ZM8.86689 8.06689C9.06756 8.26756 9.06756 8.63411 8.86689 8.83344C8.76655 8.93378 8.63411 9.00067 8.46689 9.00067C8.33311 9.00067 8.16722 8.93378 8.06689 8.83344L6.13378 6.90033L4.20067 8.83344C4 9.03411 3.63345 9.03411 3.43411 8.83344C3.23478 8.63278 3.23344 8.26622 3.43411 8.06689L5.36722 6.13378L3.43411 4.20067C3.33378 4.10033 3.26689 3.96789 3.26689 3.80067C3.26689 3.66689 3.33378 3.501 3.43411 3.40067C3.63478 3.2 4.00134 3.2 4.20067 3.40067L6.13378 5.33378L8.06689 3.40067C8.16722 3.30033 8.29967 3.23344 8.46689 3.23344C8.60067 3.23344 8.76655 3.30033 8.86689 3.40067C8.96722 3.501 9.03411 3.63344 9.03411 3.80067C9.03411 3.93445 8.96722 4.10033 8.86689 4.20067L6.93378 6.13378L8.86689 8.06689Z" fill="#EB0707"/>
</g>
<defs>
<clipPath id="clip0_63_24330">
<rect width="12" height="12" fill="white"/>
</clipPath>
</defs>
</svg>
