<svg width="32" height="32" viewBox="0 0 32 32" fill="none" xmlns="http://www.w3.org/2000/svg">
<g id="Group 1321315518">
<path id="Ellipse 825" d="M32 16C32 24.8366 24.8366 32 16 32C7.16344 32 0 24.8366 0 16C0 7.16344 7.16344 0 16 0C24.8366 0 32 7.16344 32 16ZM6.90069 16C6.90069 21.0254 10.9746 25.0993 16 25.0993C21.0254 25.0993 25.0993 21.0254 25.0993 16C25.0993 10.9746 21.0254 6.90069 16 6.90069C10.9746 6.90069 6.90069 10.9746 6.90069 16Z" fill="#FFEFFF"/>
<path id="Ellipse 826" d="M18.5024 28.3587C18.8741 30.194 20.6865 31.4124 22.4026 30.6631C23.4006 30.2273 24.3543 29.6896 25.2478 29.0567C27.067 27.7682 28.5969 26.1138 29.7393 24.1995C30.8817 22.2852 31.6115 20.1533 31.8819 17.9404C32.0147 16.8536 32.0352 15.7589 31.9449 14.6736C31.7897 12.8075 29.8568 11.7909 28.0651 12.3351C26.2734 12.8793 25.3308 14.8037 25.1945 16.6713C25.1836 16.8204 25.1691 16.9693 25.1509 17.118C24.9951 18.393 24.5746 19.6214 23.9164 20.7244C23.2581 21.8274 22.3766 22.7807 21.3285 23.5231C21.2062 23.6097 21.082 23.6932 20.9559 23.7735C19.377 24.7802 18.1308 26.5234 18.5024 28.3587Z" fill="#FC72FF"/>
</g>
</svg>
