<svg width="32" height="32" viewBox="0 0 32 32" fill="none" xmlns="http://www.w3.org/2000/svg">
<g id="asset_USDT 2" clip-path="url(#clip0_712_7394)">
<path id="Vector" d="M16 32C19.1645 32 22.2579 31.0616 24.8891 29.3035C27.5203 27.5454 29.5711 25.0466 30.7821 22.1229C31.9931 19.1993 32.3099 15.9823 31.6926 12.8786C31.0752 9.77488 29.5513 6.92395 27.3137 4.6863C25.076 2.44866 22.2252 0.924807 19.1215 0.307442C16.0177 -0.30992 12.8007 0.00693171 9.87707 1.21793C6.95346 2.42894 4.4546 4.47969 2.69649 7.11088C0.938386 9.74206 0 12.8355 0 16C0 20.2435 1.68571 24.3131 4.68629 27.3137C7.68687 30.3143 11.7565 32 16 32Z" fill="#7D7D7D" fill-opacity="0.5"/>
<path id="Vector_2" d="M17.8272 16.9093V16.9069C17.7246 16.9141 17.1951 16.9451 16.0167 16.9451C15.0745 16.9451 14.4137 16.9189 14.18 16.9069V16.9093C10.5566 16.7495 7.85396 16.1198 7.85396 15.3636C7.85396 14.6099 10.559 13.9777 14.18 13.8179V16.282C14.4161 16.2987 15.0959 16.3393 16.0334 16.3393C17.1593 16.3393 17.7222 16.2915 17.8272 16.282V13.8203C21.4434 13.9825 24.1389 14.6122 24.1389 15.366C24.1389 16.1198 21.441 16.7495 17.8272 16.9117V16.9093ZM17.8272 13.565V11.361H22.8722V8H9.13729V11.361H14.1824V13.565C10.0819 13.7535 7 14.5645 7 15.5378C7 16.511 10.0843 17.322 14.1824 17.5128V24.5783H17.8296V17.5128C21.9229 17.3244 25 16.5134 25 15.5401C25 14.5693 21.9229 13.7559 17.8296 13.5674" fill="#FEFEFE"/>
</g>
<defs>
<clipPath id="clip0_712_7394">
<rect width="32" height="32" fill="white"/>
</clipPath>
</defs>
</svg>
